<svg xmlns="http://www.w3.org/2000/svg" xmlns:xlink="http://www.w3.org/1999/xlink" viewBox="0 0 423.83 282.79"><defs><style>.cls-1,.cls-2{fill:#0f0075;}.cls-1,.cls-7{opacity:0.25;}.cls-3{fill:#1b0f75;}.cls-4{fill:#290a4d;}.cls-5{fill:url(#Unbenannter_Verlauf_8);}.cls-6{fill:#6629a1;}.cls-7{fill:#7300fd;}.cls-8{fill:#02cda0;}.cls-9{fill:#fd8b4f;}.cls-10,.cls-13,.cls-23,.cls-24,.cls-25,.cls-26,.cls-29,.cls-30,.cls-37,.cls-41,.cls-45,.cls-46,.cls-47,.cls-55{fill:none;}.cls-10{stroke:#6629a1;stroke-width:2.74px;}.cls-10,.cls-13,.cls-23,.cls-24,.cls-25,.cls-26,.cls-28,.cls-29,.cls-30,.cls-37,.cls-41,.cls-45,.cls-46,.cls-47,.cls-55{stroke-linecap:round;stroke-miterlimit:10;}.cls-11{fill:#bd3cee;opacity:0.5;}.cls-12{fill:#fd436e;}.cls-13{stroke:#4325b8;stroke-width:2.19px;}.cls-14{fill:#4325b8;}.cls-15{fill:url(#Unbenannter_Verlauf_8-2);}.cls-16{fill:url(#Unbenannter_Verlauf_8-3);}.cls-17{fill:#a00070;}.cls-18{fill:#fd7816;}.cls-19{fill:#fa4f00;}.cls-20{fill:#ffb100;}.cls-21{fill:#ae0143;}.cls-22{fill:#ffce00;}.cls-23{stroke:#00dcc5;stroke-width:5.78px;}.cls-24{stroke:#00b6bb;stroke-width:4.56px;}.cls-25{stroke:#2be9c2;}.cls-25,.cls-26,.cls-45{stroke-width:5.68px;}.cls-26{stroke:#006efd;}.cls-27{fill:#006efd;}.cls-28,.cls-31{fill:#ff1a4a;}.cls-28{stroke:#ff6e00;stroke-width:2.03px;}.cls-29,.cls-46{stroke:#20d7c4;}.cls-29{stroke-width:8.54px;}.cls-30,.cls-47{stroke:#04b2b8;}.cls-30{stroke-width:6.74px;}.cls-32{fill:#fda803;}.cls-33{fill:#cc0049;}.cls-34{fill:#8e00ee;}.cls-35{fill:#21affc;}.cls-36{fill:#ff001b;}.cls-37,.cls-41{stroke:#fccf28;}.cls-37{stroke-width:2.31px;}.cls-38{fill:#a13cfd;}.cls-39{fill:#0ceed2;}.cls-40{fill:#02b4fd;}.cls-41{stroke-width:2.59px;}.cls-42{fill:#ff6e00;}.cls-43{fill:#ffa400;}.cls-44{fill:#be0041;}.cls-45,.cls-55{stroke:#21affc;}.cls-46{stroke-width:6.33px;}.cls-47{stroke-width:4.99px;}.cls-48{fill:#e1007e;}.cls-49{fill:#f51a4b;}.cls-50{fill:#00b3ff;}.cls-51{fill:#0091ff;}.cls-52{fill:#019bfd;}.cls-53{fill:#10d8fd;}.cls-54{fill:#8a0038;}.cls-55{stroke-width:4.74px;}</style><linearGradient id="Unbenannter_Verlauf_8" x1="4110.02" y1="109.93" x2="4112.77" y2="109.93" gradientTransform="matrix(-1, 0, 0, 1, 4214.94, 0)" gradientUnits="userSpaceOnUse"><stop offset="0" stop-color="#4325b8"/><stop offset="1" stop-color="#4325b8"/></linearGradient><linearGradient id="Unbenannter_Verlauf_8-2" x1="-5400.45" y1="9122.54" x2="-5397.7" y2="9122.54" gradientTransform="matrix(1, 0, 0, -1, 5756.64, 9302.21)" xlink:href="#Unbenannter_Verlauf_8"/><linearGradient id="Unbenannter_Verlauf_8-3" x1="-5511.09" y1="9021.05" x2="-5508.34" y2="9021.05" gradientTransform="matrix(1, 0, 0, -1, 5756.64, 9302.21)" xlink:href="#Unbenannter_Verlauf_8"/></defs><title>Asset 3</title><g id="Layer_2" data-name="Layer 2"><g id="Ebene_1" data-name="Ebene 1"><circle class="cls-1" cx="83.77" cy="77.21" r="3.57"/><circle class="cls-2" cx="83.77" cy="77.21" r="1.8"/><circle class="cls-3" cx="153.03" cy="103.14" r="1.8"/><circle class="cls-3" cx="132.48" cy="254.92" r="1.8"/><circle class="cls-1" cx="122.43" cy="206.09" r="3.57"/><circle class="cls-2" cx="155.82" cy="230.93" r="1.8"/><circle class="cls-3" cx="95.57" cy="170.2" r="1.8"/><circle class="cls-2" cx="150.52" cy="53.28" r="1.18"/><circle class="cls-2" cx="45.54" cy="53.47" r="1.18"/><circle class="cls-2" cx="42.86" cy="221.89" r="1.18"/><circle class="cls-2" cx="141.79" cy="241.82" r="1.18"/><circle class="cls-2" cx="79.29" cy="177" r="1.18"/><circle class="cls-2" cx="94.39" cy="48.47" r="1.18"/><circle class="cls-2" cx="208.89" cy="7.82" r="1.18"/><circle class="cls-2" cx="132.9" cy="33.28" r="1.18"/><circle class="cls-2" cx="62.05" cy="127.6" r="1.18"/><circle class="cls-4" cx="97.41" cy="110.12" r="1.66"/><circle class="cls-4" cx="120.66" cy="91.39" r="1.66"/><circle class="cls-4" cx="120.66" cy="193.15" r="1.66"/><circle class="cls-4" cx="238.47" cy="214.75" r="1.66"/><circle class="cls-4" cx="227.2" cy="6.07" r="1.66"/><circle class="cls-4" cx="104.87" cy="205.58" r="1.66"/><circle class="cls-4" cx="237.18" cy="228.9" r="1.66"/><circle class="cls-4" cx="169.66" cy="265.07" r="1.66"/><circle class="cls-4" cx="116.65" cy="269.85" r="1.66"/><circle class="cls-4" cx="218.25" cy="220.13" r="1.66"/><circle class="cls-4" cx="135.85" cy="1.66" r="1.66"/><circle class="cls-4" cx="1.66" cy="117.28" r="1.66"/><circle class="cls-2" cx="26.25" cy="56.65" r="1.18"/><circle class="cls-4" cx="166.72" cy="6.54" r="1.66"/><circle class="cls-1" cx="201.28" cy="279.22" r="3.57"/><circle class="cls-2" cx="201.28" cy="279.22" r="1.8"/><path class="cls-5" d="M102.18,110a1.36,1.36,0,0,1,1.29-1.45,1.38,1.38,0,1,1-1.29,1.45Z"/><path class="cls-6" d="M303.92,257.65a1.37,1.37,0,1,1,1.45,1.29A1.36,1.36,0,0,1,303.92,257.65Z"/><path class="cls-6" d="M195.65,259a1.38,1.38,0,1,1,1.45,1.3A1.39,1.39,0,0,1,195.65,259Z"/><path class="cls-6" d="M110.87,226a1.37,1.37,0,1,1,1.45,1.29A1.36,1.36,0,0,1,110.87,226Z"/><path class="cls-6" d="M88.51,44.77a1.37,1.37,0,1,1,2.74-.15A1.36,1.36,0,0,1,90,46.07,1.38,1.38,0,0,1,88.51,44.77Z"/><path class="cls-6" d="M136.5,236.84a1.38,1.38,0,1,1,1.3-1.45A1.39,1.39,0,0,1,136.5,236.84Z"/><path class="cls-6" d="M160.15,39.47A1.36,1.36,0,0,1,161.44,38a1.38,1.38,0,1,1-1.29,1.45Z"/><path class="cls-6" d="M172,59.16a1.37,1.37,0,1,1-1.45-1.29A1.38,1.38,0,0,1,172,59.16Z"/><circle class="cls-6" cx="116.65" cy="145.3" r="2.76"/><path class="cls-6" d="M119.61,55.7a1.38,1.38,0,1,1-1.94-.07A1.38,1.38,0,0,1,119.61,55.7Z"/><path class="cls-6" d="M162.53,46.7a1.38,1.38,0,1,1-1.95-.07A1.38,1.38,0,0,1,162.53,46.7Z"/><path class="cls-6" d="M131.82,91.92a1.38,1.38,0,1,1,1.94.07A1.39,1.39,0,0,1,131.82,91.92Z"/><path class="cls-6" d="M229.22,267.93a1.38,1.38,0,1,1,1.08,1.61A1.38,1.38,0,0,1,229.22,267.93Z"/><path class="cls-6" d="M77.87,183.65a1.37,1.37,0,1,1,1.45,1.29A1.36,1.36,0,0,1,77.87,183.65Z"/><path class="cls-6" d="M140.15,213.29a1.38,1.38,0,1,1-1.61,1.08A1.37,1.37,0,0,1,140.15,213.29Z"/><path class="cls-6" d="M129.9,161.41a1.38,1.38,0,1,1-1.62,1.08A1.38,1.38,0,0,1,129.9,161.41Z"/><path class="cls-6" d="M21.84,156.26a1.38,1.38,0,1,1-1.3,1.45A1.39,1.39,0,0,1,21.84,156.26Z"/><path class="cls-6" d="M189.21,11.47a1.37,1.37,0,1,1-1.62,1.08A1.37,1.37,0,0,1,189.21,11.47Z"/><circle class="cls-7" cx="28.51" cy="93.17" r="6.79"/><circle class="cls-8" cx="28.51" cy="93.17" r="2.95"/><circle class="cls-9" cx="84.01" cy="216.11" r="1.5"/><circle class="cls-9" cx="107.85" cy="89.11" r="1.5"/><circle class="cls-8" cx="138.79" cy="204.48" r="1.53"/><circle class="cls-7" cx="149.35" cy="258.13" r="6.95"/><circle class="cls-10" cx="149.35" cy="258.13" r="3.19"/><circle class="cls-11" cx="94.39" cy="249.67" r="4.81"/><circle class="cls-12" cx="94.39" cy="249.67" r="2.21"/><circle class="cls-7" cx="104.09" cy="62.79" r="6.79"/><line class="cls-13" x1="104.09" y1="50.74" x2="104.09" y2="74.83"/><line class="cls-13" x1="111.07" y1="62.79" x2="97.11" y2="62.79"/><circle class="cls-14" cx="104.09" cy="62.79" r="3.44"/><circle class="cls-8" cx="104.09" cy="62.79" r="1.72"/><circle class="cls-1" cx="377.34" cy="212.38" r="3.57"/><circle class="cls-2" cx="377.34" cy="212.38" r="1.8"/><circle class="cls-3" cx="308.08" cy="186.45" r="1.8"/><circle class="cls-3" cx="328.64" cy="34.68" r="1.8"/><circle class="cls-1" cx="338.68" cy="83.51" r="3.57"/><circle class="cls-2" cx="305.29" cy="58.67" r="1.8"/><circle class="cls-3" cx="365.54" cy="119.39" r="1.8"/><circle class="cls-2" cx="308.08" cy="225.94" r="1.18"/><circle class="cls-2" cx="422.65" cy="212.37" r="1.18"/><circle class="cls-2" cx="418.25" cy="67.71" r="1.18"/><circle class="cls-2" cx="319.32" cy="47.77" r="1.18"/><circle class="cls-2" cx="381.82" cy="112.6" r="1.18"/><circle class="cls-2" cx="366.73" cy="241.12" r="1.18"/><circle class="cls-2" cx="249.67" cy="260.23" r="1.18"/><circle class="cls-2" cx="325.7" cy="245.94" r="1.18"/><circle class="cls-2" cx="399.06" cy="161.99" r="1.18"/><circle class="cls-4" cx="363.7" cy="179.48" r="1.66"/><circle class="cls-4" cx="340.45" cy="198.21" r="1.66"/><circle class="cls-4" cx="340.45" cy="96.45" r="1.66"/><circle class="cls-4" cx="220.09" cy="53.3" r="1.66"/><circle class="cls-4" cx="237.01" cy="252.99" r="1.66"/><circle class="cls-4" cx="356.24" cy="84.02" r="1.66"/><circle class="cls-4" cx="221.38" cy="39.15" r="1.66"/><circle class="cls-4" cx="288.93" cy="14.14" r="1.66"/><circle class="cls-4" cx="344.46" cy="19.75" r="1.66"/><circle class="cls-4" cx="240.31" cy="47.93" r="1.66"/><circle class="cls-4" cx="322.74" cy="277.56" r="1.66"/><circle class="cls-4" cx="291.88" cy="272.68" r="1.66"/><circle class="cls-1" cx="252.8" cy="4.42" r="3.57"/><circle class="cls-2" cx="252.8" cy="4.42" r="1.8"/><path class="cls-15" d="M358.94,179.58a1.39,1.39,0,0,1-1.3,1.46,1.38,1.38,0,1,1,1.3-1.46Z"/><path class="cls-16" d="M246.63,279.81a1.38,1.38,0,1,1-1.07,1.2A1.37,1.37,0,0,1,246.63,279.81Z"/><path class="cls-6" d="M221.29,16.93a1.37,1.37,0,1,1-1.45-1.29A1.38,1.38,0,0,1,221.29,16.93Z"/><path class="cls-6" d="M263,20.19a1.38,1.38,0,0,1-1.3,1.45,1.37,1.37,0,0,1-.16-2.74A1.39,1.39,0,0,1,263,20.19Z"/><path class="cls-6" d="M350.24,63.57A1.36,1.36,0,0,1,349,65a1.38,1.38,0,1,1,1.29-1.45Z"/><path class="cls-6" d="M372.6,244.82a1.37,1.37,0,1,1-1.45-1.29A1.37,1.37,0,0,1,372.6,244.82Z"/><path class="cls-6" d="M324.61,52.76a1.37,1.37,0,1,1-1.3,1.45A1.38,1.38,0,0,1,324.61,52.76Z"/><path class="cls-6" d="M298.45,239.75a1.38,1.38,0,1,1-1.45-1.3A1.39,1.39,0,0,1,298.45,239.75Z"/><path class="cls-6" d="M286.59,220.05a1.37,1.37,0,1,1,1.45,1.3A1.37,1.37,0,0,1,286.59,220.05Z"/><circle class="cls-6" cx="344.46" cy="144.3" r="2.76"/><path class="cls-6" d="M341.5,233.89a1.37,1.37,0,1,1,1.94.07A1.37,1.37,0,0,1,341.5,233.89Z"/><path class="cls-6" d="M296.07,232.52a1.37,1.37,0,1,1,1.94.07A1.37,1.37,0,0,1,296.07,232.52Z"/><path class="cls-6" d="M329.29,197.68a1.37,1.37,0,1,1-1.94-.07A1.37,1.37,0,0,1,329.29,197.68Z"/><path class="cls-6" d="M290.25,33.21a1.38,1.38,0,0,1-2.7-.54,1.38,1.38,0,1,1,2.7.54Z"/><path class="cls-6" d="M407.21,100.58a1.37,1.37,0,1,1-1.45-1.29A1.36,1.36,0,0,1,407.21,100.58Z"/><path class="cls-6" d="M321,76.31a1.38,1.38,0,1,1,1.61-1.08A1.38,1.38,0,0,1,321,76.31Z"/><path class="cls-6" d="M331.21,128.18a1.37,1.37,0,1,1,1.62-1.07A1.37,1.37,0,0,1,331.21,128.18Z"/><path class="cls-6" d="M269.35,256.58a1.37,1.37,0,1,1,1.62-1.07A1.38,1.38,0,0,1,269.35,256.58Z"/><circle class="cls-7" cx="378.16" cy="147.06" r="6.79"/><circle class="cls-8" cx="378.16" cy="147.06" r="2.95"/><circle class="cls-9" cx="377.1" cy="73.49" r="1.5"/><circle class="cls-9" cx="353.26" cy="200.49" r="1.5"/><circle class="cls-8" cx="322.32" cy="85.11" r="1.53"/><circle class="cls-7" cx="311.76" cy="31.47" r="6.95"/><circle class="cls-10" cx="311.76" cy="31.47" r="3.19"/><circle class="cls-11" cx="366.73" cy="39.93" r="4.81"/><circle class="cls-12" cx="366.73" cy="39.93" r="2.21"/><circle class="cls-7" cx="357.02" cy="226.81" r="6.79"/><line class="cls-13" x1="357.02" y1="238.86" x2="357.02" y2="214.76"/><line class="cls-13" x1="350.04" y1="226.81" x2="364" y2="226.81"/><circle class="cls-14" cx="357.02" cy="226.81" r="3.44"/><circle class="cls-8" cx="357.02" cy="226.81" r="1.72"/><path class="cls-17" d="M227.15,46.39a100.88,100.88,0,0,1,0,201.76"/><path class="cls-17" d="M227.15,46.39a100.88,100.88,0,0,0,0,201.76"/><rect class="cls-18" x="262.91" y="59.5" width="51.6" height="33.74" rx="16.87" ry="16.87"/><path class="cls-19" d="M310.48,87.3c-.29.34-.59.67-.91,1a16.82,16.82,0,0,1-11.93,4.94H279.77a16.87,16.87,0,1,1,0-33.73H280a16.87,16.87,0,0,0,12.85,27.8Z"/><rect class="cls-20" x="274.72" y="66.78" width="35.11" height="16.87" rx="8.25" ry="8.25"/><rect class="cls-21" x="271.68" y="66.78" width="35.11" height="16.87" rx="8.25" ry="8.25"/><path class="cls-18" d="M213.23,180.85h1.54a1.74,1.74,0,0,1,1.74,1.74v10.55a0,0,0,0,1,0,0h-5.81a1.43,1.43,0,0,1-1.43-1.43v-6.9A4,4,0,0,1,213.23,180.85Z"/><path class="cls-22" d="M215.18,180.85h0a3.64,3.64,0,0,1,3.64,3.64v7.22a1.43,1.43,0,0,1-1.43,1.43h-5.84a0,0,0,0,1,0,0v-8.66a3.64,3.64,0,0,1,3.64-3.64Z"/><path class="cls-18" d="M213.23,198.59h1.54a1.74,1.74,0,0,1,1.74,1.74v10.55a0,0,0,0,1,0,0h-5.81a1.43,1.43,0,0,1-1.43-1.43v-6.9A4,4,0,0,1,213.23,198.59Z"/><path class="cls-22" d="M215.18,198.59h0a3.64,3.64,0,0,1,3.64,3.64v7.22a1.43,1.43,0,0,1-1.43,1.43h-5.84a0,0,0,0,1,0,0v-8.66A3.64,3.64,0,0,1,215.18,198.59Z"/><path class="cls-23" d="M183.36,39.64a11.6,11.6,0,0,1-4.07,7.94A11.36,11.36,0,0,1,172,50.09"/><path class="cls-23" d="M191.59,44.29a30.86,30.86,0,0,1-17.27,16.39"/><path class="cls-23" d="M196.35,53.05a34,34,0,0,1-13.44,12.26"/><path class="cls-24" d="M200.77,66.23a48.1,48.1,0,0,1-18-13.83,47.2,47.2,0,0,1-6.37-10.62"/><path class="cls-25" d="M167.11,137a17.12,17.12,0,0,0,10.3-5.57,16.9,16.9,0,0,0,3.92-8.57"/><path class="cls-26" d="M180.26,149.51a22.73,22.73,0,0,1,2.18-8.64,22.34,22.34,0,0,1,6-7.57"/><path class="cls-25" d="M132.25,182.76a17.14,17.14,0,0,0,11.53-2.07,16.85,16.85,0,0,0,6.41-6.92"/><path class="cls-27" d="M136.51,192.2l.33-3.54a25.51,25.51,0,0,0-1.92-12.27l-1.41-3.31a8,8,0,0,0-8.24-4.93h0a7.65,7.65,0,0,0-5.84,10.65h0a25.48,25.48,0,0,1,1.79,11.43h0A8.11,8.11,0,0,0,130.1,199h0A7.44,7.44,0,0,0,136.51,192.2Z"/><path class="cls-18" d="M164.1,125h-36A18.18,18.18,0,0,0,110,143.21V164.6a2.3,2.3,0,0,0,2.3,2.3H164.1Z"/><path class="cls-20" d="M164.1,132.11h-36A18.19,18.19,0,0,0,110,150.3v16.83a6.86,6.86,0,0,0,6.86,6.86H164.1Z"/><rect class="cls-28" x="115.73" y="148.56" width="26.38" height="7.88" rx="3.94" ry="3.94"/><rect class="cls-28" x="121.93" y="135.95" width="26.38" height="7.88" rx="3.94" ry="3.94"/><rect class="cls-28" x="115.73" y="161.17" width="26.38" height="7.88" rx="3.94" ry="3.94"/><path class="cls-29" d="M107.81,95.82a17.06,17.06,0,0,0,11.5-6.45,16.82,16.82,0,0,0,3.3-11"/><path class="cls-29" d="M113.86,109.4A45.45,45.45,0,0,0,137.1,83"/><path class="cls-29" d="M124.89,117.74a49.88,49.88,0,0,0,18.72-19.31"/><path class="cls-30" d="M142.67,125.67a71,71,0,0,0-17.18-28.85A69.12,69.12,0,0,0,111,85.63"/><path class="cls-31" d="M147.19,58.26H159.5a10,10,0,0,1,10,10v51.24a12.59,12.59,0,0,1-12.59,12.59h-1.71a12.59,12.59,0,0,1-12.59-12.59V62.85a4.59,4.59,0,0,1,4.59-4.59Z"/><path class="cls-18" d="M146.69,58.26h5.22A9.77,9.77,0,0,1,161.67,68v51.67a12.38,12.38,0,0,1-12.38,12.38H136.92a0,0,0,0,1,0,0V68a9.77,9.77,0,0,1,9.77-9.77Z"/><path class="cls-32" d="M146.82,66.45h2.08a2.34,2.34,0,0,1,2.34,2.34v8.68a2.34,2.34,0,0,1-2.34,2.34h-2.08a5.33,5.33,0,0,1-5.33-5.33V71.77A5.33,5.33,0,0,1,146.82,66.45Z"/><rect class="cls-22" x="144.55" y="66.45" width="9.78" height="13.37" rx="4.89" ry="4.89"/><path class="cls-32" d="M146.82,87h2.08a2.34,2.34,0,0,1,2.34,2.34v8.68a2.34,2.34,0,0,1-2.34,2.34h-2.08a5.33,5.33,0,0,1-5.33-5.33V92.36A5.33,5.33,0,0,1,146.82,87Z"/><rect class="cls-22" x="144.55" y="87.03" width="9.78" height="13.37" rx="4.89" ry="4.89"/><path class="cls-33" d="M227.49,128.93V48.48a10,10,0,0,0-10-10H205.19a4.6,4.6,0,0,0-4.59,4.59v85.84Z"/><path class="cls-31" d="M219.68,128.93V48.27a9.76,9.76,0,0,0-9.77-9.77H204.7a9.76,9.76,0,0,0-9.77,9.77v80.66Z"/><path class="cls-33" d="M205.93,46.69H208A2.34,2.34,0,0,1,210.35,49v8.68A2.34,2.34,0,0,1,208,60.06h-2.08a5.33,5.33,0,0,1-5.33-5.33V52a5.33,5.33,0,0,1,5.33-5.33Z"/><rect class="cls-22" x="203.66" y="46.69" width="9.78" height="13.37" rx="4.89" ry="4.89"/><path class="cls-33" d="M205.93,67.28H208a2.34,2.34,0,0,1,2.34,2.34V78.3A2.34,2.34,0,0,1,208,80.64h-2.08a5.33,5.33,0,0,1-5.33-5.33V72.6a5.33,5.33,0,0,1,5.33-5.33Z"/><rect class="cls-22" x="203.66" y="67.28" width="9.78" height="13.37" rx="4.89" ry="4.89"/><path class="cls-34" d="M204.73,124.66h0a15.12,15.12,0,0,1,15.12,15.12v2.49a0,0,0,0,1,0,0h-2.49a15.12,15.12,0,0,1-15.12-15.12v0a2.49,2.49,0,0,1,2.49-2.49Z" transform="translate(63.08 -67.68) rotate(21.35)"/><path class="cls-34" d="M198.65,145.49h0a15.12,15.12,0,0,1,15.12,15.12v2.49a0,0,0,0,1,0,0h-2.49A15.12,15.12,0,0,1,196.16,148v0A2.49,2.49,0,0,1,198.65,145.49Z" transform="matrix(0.77, -0.64, 0.64, 0.77, -51.21, 168.22)"/><path class="cls-27" d="M202.42,149.26h0a15.12,15.12,0,0,1,15.12,15.12v2.49a0,0,0,0,1,0,0h-2.49a15.12,15.12,0,0,1-15.12-15.12v0a2.49,2.49,0,0,1,2.49-2.49Z" transform="translate(-12.06 298.79) rotate(-69.65)"/><path class="cls-27" d="M185.13,78.15h0a15.12,15.12,0,0,1,15.12,15.12v2.49a0,0,0,0,1,0,0h-2.49a15.12,15.12,0,0,1-15.12-15.12v0a2.49,2.49,0,0,1,2.49-2.49Z" transform="translate(243.78 -116.7) rotate(79.98)"/><path class="cls-27" d="M169.27,76.48h0A15.12,15.12,0,0,1,184.39,91.6v2.49a0,0,0,0,1,0,0H181.9A15.12,15.12,0,0,1,166.78,79v0a2.49,2.49,0,0,1,2.49-2.49Z" transform="translate(38.66 -53.84) rotate(19.55)"/><path class="cls-35" d="M178,74.32h0a15.12,15.12,0,0,1,15.12,15.12v2.49a0,0,0,0,1,0,0h-2.49A15.12,15.12,0,0,1,175.53,76.8v0A2.49,2.49,0,0,1,178,74.32Z" transform="translate(130.95 -111.91) rotate(50.42)"/><path class="cls-27" d="M218.32,133.38h0a17.52,17.52,0,0,1,17.52,17.52v0a2.88,2.88,0,0,1-2.88,2.88h0a17.52,17.52,0,0,1-17.52-17.52v0a2.88,2.88,0,0,1,2.88-2.88Z" transform="translate(444.98 -9.46) rotate(112.63)"/><path class="cls-35" d="M212.09,125.48h0A17.52,17.52,0,0,1,229.61,143v0a2.88,2.88,0,0,1-2.88,2.88h0a17.52,17.52,0,0,1-17.52-17.52v0a2.88,2.88,0,0,1,2.88-2.88Z" transform="translate(299.47 -109.56) rotate(76.35)"/><polygon class="cls-18" points="196.9 128.13 238.92 179.75 223.65 181.4 180.08 128.38 196.9 128.13"/><rect class="cls-32" x="227.15" y="174.12" width="14.21" height="5.66" transform="translate(468.5 353.9) rotate(-180)"/><rect class="cls-22" x="222.63" y="168.46" width="14.21" height="5.66" transform="translate(459.46 342.58) rotate(-180)"/><rect class="cls-32" x="218.11" y="162.79" width="14.21" height="5.66" transform="translate(450.42 331.25) rotate(-180)"/><rect class="cls-22" x="213.59" y="157.13" width="14.21" height="5.66" transform="translate(441.38 319.92) rotate(-180)"/><rect class="cls-32" x="209.07" y="151.46" width="14.21" height="5.66" transform="translate(432.34 308.59) rotate(-180)"/><rect class="cls-22" x="204.55" y="145.8" width="14.21" height="5.66" transform="translate(423.3 297.26) rotate(-180)"/><rect class="cls-32" x="200.03" y="140.14" width="14.21" height="5.66" transform="translate(414.26 285.94) rotate(-180)"/><rect class="cls-22" x="195.51" y="134.47" width="14.21" height="5.66" transform="translate(405.22 274.61) rotate(-180)"/><rect class="cls-21" x="146.96" y="119.76" width="64.25" height="9.17" rx="4.58" ry="4.58" transform="translate(358.17 248.69) rotate(-180)"/><rect class="cls-32" x="190.98" y="128.81" width="14.21" height="5.66" transform="translate(396.18 263.28) rotate(-180)"/><path class="cls-22" d="M154,83.63h50.16a0,0,0,0,1,0,0V94.68a25.08,25.08,0,0,1-25.08,25.08h0A25.08,25.08,0,0,1,154,94.68V83.63A0,0,0,0,1,154,83.63Z" transform="translate(358.17 203.39) rotate(180)"/><path class="cls-18" d="M183,100.73h4.91a5.81,5.81,0,0,1,5.81,5.81v13.22a0,0,0,0,1,0,0h-14a0,0,0,0,1,0,0V104A3.24,3.24,0,0,1,183,100.73Z"/><path class="cls-36" d="M176.4,100.73h13.27a0,0,0,0,1,0,0v13.51a5.52,5.52,0,0,1-5.52,5.52h-2.23a5.52,5.52,0,0,1-5.52-5.52V100.73A0,0,0,0,1,176.4,100.73Z" transform="translate(366.06 220.49) rotate(180)"/><path class="cls-31" d="M154,108.71v11.05h9.13V108.71A25.09,25.09,0,0,1,183.65,84a25.44,25.44,0,0,0-4.56-.41A25.08,25.08,0,0,0,154,108.71Z"/><path class="cls-26" d="M140.82,198.77a22.76,22.76,0,0,1,4.78-7.52,22.3,22.3,0,0,1,8-5.33"/><path class="cls-35" d="M148.35,199.55l-1.45-2.27a19.1,19.1,0,0,0-6.74-6.42l-2.32-1.31a5.6,5.6,0,0,0-6.94,1h0a6,6,0,0,0,1.6,9.16h0a19.16,19.16,0,0,1,6.28,6h0a5.77,5.77,0,0,0,9.07,1h0A5.89,5.89,0,0,0,148.35,199.55Z"/><path class="cls-27" d="M174.1,144.62l-.79-3.47a25.39,25.39,0,0,0-5.67-11.05l-2.37-2.71a8,8,0,0,0-9.37-2.09h0a7.65,7.65,0,0,0-2.21,11.94h0A25.52,25.52,0,0,1,159,147.53h0a8.12,8.12,0,0,0,11.17,5.55h0A7.44,7.44,0,0,0,174.1,144.62Z"/><path class="cls-35" d="M187.65,147.89l-2.09-1.7a19.1,19.1,0,0,0-8.41-4l-2.61-.51a5.61,5.61,0,0,0-6.28,3.12h0a6,6,0,0,0,4.39,8.2h0a19.31,19.31,0,0,1,7.84,3.71h0a5.77,5.77,0,0,0,8.92-1.9h0A5.91,5.91,0,0,0,187.65,147.89Z"/><path class="cls-33" d="M161.74,160.25h34.37a0,0,0,0,1,0,0v30a4.91,4.91,0,0,1-4.91,4.91H166.65a4.91,4.91,0,0,1-4.91-4.91v-30A0,0,0,0,1,161.74,160.25Z" transform="translate(357.84 355.38) rotate(180)"/><path class="cls-31" d="M152.26,166.06h34.37a0,0,0,0,1,0,0v49.88a4.91,4.91,0,0,1-4.91,4.91H157.17a4.91,4.91,0,0,1-4.91-4.91V166.06A0,0,0,0,1,152.26,166.06Z" transform="translate(338.9 386.91) rotate(180)"/><path class="cls-33" d="M158.56,173.74h5.86a1.47,1.47,0,0,1,1.47,1.47v9.12a4.4,4.4,0,0,1-4.4,4.4h0a4.4,4.4,0,0,1-4.4-4.4v-9.12A1.47,1.47,0,0,1,158.56,173.74Z" transform="translate(322.97 362.46) rotate(-180)"/><path class="cls-33" d="M158.56,196.51h5.86a1.47,1.47,0,0,1,1.47,1.47v9.12a4.4,4.4,0,0,1-4.4,4.4h0a4.4,4.4,0,0,1-4.4-4.4V198a1.47,1.47,0,0,1,1.47-1.47Z" transform="translate(322.97 408) rotate(-180)"/><path class="cls-20" d="M171.54,166.06h34.37a0,0,0,0,1,0,0v49.88a4.91,4.91,0,0,1-4.91,4.91H176.45a4.91,4.91,0,0,1-4.91-4.91V166.06A0,0,0,0,1,171.54,166.06Z" transform="translate(377.45 386.91) rotate(180)"/><path class="cls-36" d="M179.13,196.51h19.18a0,0,0,0,1,0,0v9.94a5.05,5.05,0,0,1-5.05,5.05h-9.08a5.05,5.05,0,0,1-5.05-5.05v-9.94a0,0,0,0,1,0,0Z" transform="translate(377.45 408) rotate(-180)"/><line class="cls-37" x1="197.77" y1="210.89" x2="179.68" y2="210.89"/><path class="cls-36" d="M179.13,173.74h19.18a0,0,0,0,1,0,0v9.94a5.05,5.05,0,0,1-5.05,5.05h-9.08a5.05,5.05,0,0,1-5.05-5.05v-9.94A0,0,0,0,1,179.13,173.74Z" transform="translate(377.45 362.46) rotate(-180)"/><line class="cls-37" x1="197.77" y1="188.12" x2="179.68" y2="188.12"/><path class="cls-38" d="M260.41,18.2h.72a.94.94,0,0,1,.94.94V28a0,0,0,0,1,0,0h-2.6a0,0,0,0,1,0,0V19.15A.94.94,0,0,1,260.41,18.2Z" transform="translate(24.88 -90.45) rotate(20.64)"/><path class="cls-38" d="M255.49,25.92l-3.49,0,.12-12.63a1.74,1.74,0,0,1,1.76-1.73h0a1.74,1.74,0,0,1,1.72,1.76Z"/><path class="cls-39" d="M266.88,22.68a3.79,3.79,0,0,1-3.43.61,6.44,6.44,0,0,1-4.58-5.63,3.81,3.81,0,0,1,1.29-3.24c2.17-1.76,2.9-3.06,6.6,1.5S269.14,20.85,266.88,22.68Z"/><path class="cls-40" d="M268.62,21.25a3.62,3.62,0,0,1-2.45.76,4.77,4.77,0,0,1-1-.16,6.15,6.15,0,0,1-3.17-2.1,6.21,6.21,0,0,1-1.42-3.53,4.14,4.14,0,0,1,.06-1A3.53,3.53,0,0,1,261.9,13c1.78-1.45,4.74-.78,6.6,1.5S270.41,19.79,268.62,21.25Z"/><path class="cls-27" d="M266.17,22a4.77,4.77,0,0,1-1-.16,6.15,6.15,0,0,1-3.17-2.1,6.21,6.21,0,0,1-1.42-3.53,4.14,4.14,0,0,1,.06-1A4.39,4.39,0,0,1,266.17,22Z"/><rect class="cls-38" x="265.9" y="12.13" width="2.6" height="6.81" rx="1.3" ry="1.3" transform="matrix(0.63, 0.78, -0.78, 0.63, 110.66, -201.56)"/><path class="cls-33" d="M243.66,25.11h27.55a5.52,5.52,0,0,1,5.52,5.52V138.19a0,0,0,0,1,0,0H238.15a0,0,0,0,1,0,0V30.62A5.52,5.52,0,0,1,243.66,25.11Z"/><path class="cls-31" d="M254.3,31.62h27.55a5.52,5.52,0,0,1,5.52,5.52V167.07a0,0,0,0,1,0,0H248.78a0,0,0,0,1,0,0V37.13A5.52,5.52,0,0,1,254.3,31.62Z"/><path class="cls-33" d="M277,40.24h0A4.94,4.94,0,0,1,282,45.18V55.42a1.65,1.65,0,0,1-1.65,1.65h-6.58a1.65,1.65,0,0,1-1.65-1.65V45.18A4.94,4.94,0,0,1,277,40.24Z"/><path class="cls-33" d="M277,65.8h0A4.94,4.94,0,0,1,282,70.74V81a1.65,1.65,0,0,1-1.65,1.65h-6.58A1.65,1.65,0,0,1,272.08,81V70.74A4.94,4.94,0,0,1,277,65.8Z"/><path class="cls-33" d="M277,91.36h0A4.94,4.94,0,0,1,282,96.3v10.24a1.65,1.65,0,0,1-1.65,1.65h-6.58a1.65,1.65,0,0,1-1.65-1.65V96.3A4.94,4.94,0,0,1,277,91.36Z"/><path class="cls-33" d="M277,116.92h0a4.94,4.94,0,0,1,4.94,4.94V132.1a1.65,1.65,0,0,1-1.65,1.65h-6.58a1.65,1.65,0,0,1-1.65-1.65V121.85A4.94,4.94,0,0,1,277,116.92Z"/><path class="cls-20" d="M232.66,31.62h27.55a5.52,5.52,0,0,1,5.52,5.52V167.07a0,0,0,0,1,0,0H227.14a0,0,0,0,1,0,0V37.13A5.52,5.52,0,0,1,232.66,31.62Z"/><path class="cls-36" d="M239,116.92h0a4.94,4.94,0,0,1,4.94,4.94v11.89a0,0,0,0,1,0,0H234a0,0,0,0,1,0,0V121.85A4.94,4.94,0,0,1,239,116.92Z"/><line class="cls-41" x1="234.66" y1="133.06" x2="243.32" y2="133.06"/><path class="cls-36" d="M239,91.36h0a4.94,4.94,0,0,1,4.94,4.94v11.89a0,0,0,0,1,0,0H234a0,0,0,0,1,0,0V96.3A4.94,4.94,0,0,1,239,91.36Z"/><line class="cls-41" x1="234.66" y1="107.5" x2="243.32" y2="107.5"/><path class="cls-36" d="M253.88,91.36h0a4.94,4.94,0,0,1,4.94,4.94v11.89a0,0,0,0,1,0,0h-9.88a0,0,0,0,1,0,0V96.3A4.94,4.94,0,0,1,253.88,91.36Z"/><line class="cls-41" x1="249.56" y1="107.5" x2="258.21" y2="107.5"/><path class="cls-36" d="M253.88,116.87h0a4.94,4.94,0,0,1,4.94,4.94V133.7a0,0,0,0,1,0,0h-9.88a0,0,0,0,1,0,0V121.81A4.94,4.94,0,0,1,253.88,116.87Z"/><line class="cls-41" x1="249.56" y1="133.01" x2="258.21" y2="133.01"/><path class="cls-31" d="M239,142.38h0a4.94,4.94,0,0,1,4.94,4.94v11.89a0,0,0,0,1,0,0H234a0,0,0,0,1,0,0V147.32A4.94,4.94,0,0,1,239,142.38Z"/><line class="cls-41" x1="234.66" y1="158.52" x2="243.32" y2="158.52"/><path class="cls-36" d="M239,65.8h0a4.94,4.94,0,0,1,4.94,4.94V82.63a0,0,0,0,1,0,0H234a0,0,0,0,1,0,0V70.74A4.94,4.94,0,0,1,239,65.8Z"/><line class="cls-41" x1="234.66" y1="81.94" x2="243.32" y2="81.94"/><path class="cls-36" d="M253.88,65.8h0a4.94,4.94,0,0,1,4.94,4.94V82.63a0,0,0,0,1,0,0h-9.88a0,0,0,0,1,0,0V70.74A4.94,4.94,0,0,1,253.88,65.8Z"/><line class="cls-41" x1="249.56" y1="81.94" x2="258.21" y2="81.94"/><path class="cls-36" d="M239,40.24h0a4.94,4.94,0,0,1,4.94,4.94V57.07a0,0,0,0,1,0,0H234a0,0,0,0,1,0,0V45.18A4.94,4.94,0,0,1,239,40.24Z"/><line class="cls-41" x1="234.66" y1="56.38" x2="243.32" y2="56.38"/><path class="cls-36" d="M253.88,40.24h0a4.94,4.94,0,0,1,4.94,4.94V57.07a0,0,0,0,1,0,0h-9.88a0,0,0,0,1,0,0V45.18A4.94,4.94,0,0,1,253.88,40.24Z"/><line class="cls-41" x1="249.56" y1="56.38" x2="258.21" y2="56.38"/><path class="cls-31" d="M357.19,77.33V40.24a9.68,9.68,0,0,0-9.68-9.68h-5.46a5.54,5.54,0,0,0-5.54,5.53V77.33Z"/><path class="cls-42" d="M351.18,77.33V40.07a9.52,9.52,0,0,0-19,0V77.33Z"/><path class="cls-43" d="M340.61,36.86h1.6a1.8,1.8,0,0,1,1.8,1.8v6.68a1.8,1.8,0,0,1-1.8,1.8h-1.6A4.09,4.09,0,0,1,336.51,43V41a4.09,4.09,0,0,1,4.09-4.09Z"/><rect class="cls-22" x="338.86" y="36.86" width="7.52" height="10.28" rx="3.76" ry="3.76"/><path class="cls-43" d="M340.61,52.68h1.6a1.8,1.8,0,0,1,1.8,1.8v6.68a1.8,1.8,0,0,1-1.8,1.8h-1.6a4.09,4.09,0,0,1-4.09-4.09V56.78A4.09,4.09,0,0,1,340.61,52.68Z"/><rect class="cls-22" x="338.86" y="52.68" width="7.52" height="10.28" rx="3.76" ry="3.76"/><path class="cls-23" d="M369.51,61.42A11.15,11.15,0,0,1,359.18,49.9"/><path class="cls-23" d="M365.66,70.71a30.81,30.81,0,0,1-16.19-17.45"/><path class="cls-23" d="M358.92,75.32a33.77,33.77,0,0,1-14.05-11.54"/><path class="cls-24" d="M346.52,81.59a48.08,48.08,0,0,1,11.09-19.81,47,47,0,0,1,9.6-7.83"/><path class="cls-17" d="M328.75,79.41a14,14,0,0,0,27.66,3.39,2.73,2.73,0,0,0-2.64-3.39Z"/><polygon class="cls-42" points="314.94 122.17 348.07 81.86 330.68 81.59 297.65 122.17 314.94 122.17"/><rect class="cls-22" x="298.75" y="111.57" width="14.68" height="5.85"/><rect class="cls-43" x="303.42" y="105.71" width="14.68" height="5.85"/><rect class="cls-22" x="308.1" y="99.86" width="14.68" height="5.85"/><rect class="cls-43" x="312.77" y="94" width="14.68" height="5.85"/><rect class="cls-22" x="317.44" y="88.15" width="14.68" height="5.85"/><path class="cls-44" d="M329.91,74.23h28a4,4,0,0,1,4,4v0a4,4,0,0,1-4,4h-32a0,0,0,0,1,0,0v-4A4,4,0,0,1,329.91,74.23Z"/><rect class="cls-43" x="322.11" y="82.29" width="14.68" height="5.85"/><path class="cls-45" d="M289.45,185.78a22.18,22.18,0,0,0-7.65,3.51c-3.3,2.37-10,7.83-11,9.49"/><path class="cls-27" d="M286.91,193.8l-2-1.39a16.63,16.63,0,0,1-5.48-6.43l-1.06-2.2a5.4,5.4,0,0,1,1.36-6.46h0a5.4,5.4,0,0,1,8.33,1.68h0a16.69,16.69,0,0,0,5.11,6h0a5.4,5.4,0,0,1,.33,8.49h0A5.38,5.38,0,0,1,286.91,193.8Z"/><path class="cls-25" d="M277.38,172.11a32.45,32.45,0,0,1-8.81,23.26"/><path class="cls-46" d="M258,115.78a13.87,13.87,0,0,1-16,4"/><path class="cls-46" d="M262.62,123.06a24.37,24.37,0,0,1-19.54,6.6"/><path class="cls-46" d="M265.63,130.85a27.49,27.49,0,0,1-19.25,7.81"/><path class="cls-46" d="M268.25,138.93a37.09,37.09,0,0,1-18.07,8.39"/><path class="cls-47" d="M264.35,150.19a85.58,85.58,0,0,1-14.83-36.25"/><path class="cls-46" d="M249.4,105.07a29,29,0,0,0,0,7.85"/><rect class="cls-18" x="288.06" y="96.57" width="23.33" height="12.17"/><path class="cls-18" d="M307.1,98.15l-20.53,17.11a6.83,6.83,0,0,0-2.46,5.25v45.4h54.72v-45.4a6.83,6.83,0,0,0-2.46-5.25L315.85,98.15A6.84,6.84,0,0,0,307.1,98.15Z"/><path class="cls-33" d="M322.09,141.46h10a0,0,0,0,1,0,0v15.69a5,5,0,0,1-5,5h0a5,5,0,0,1-5-5V141.46a0,0,0,0,1,0,0Z" transform="translate(654.17 303.61) rotate(180)"/><path class="cls-22" d="M283.69,98.15l-20.53,17.11a6.83,6.83,0,0,0-2.46,5.25v45.4h54.72v-45.4a6.83,6.83,0,0,0-2.46-5.25L292.44,98.15A6.84,6.84,0,0,0,283.69,98.15Z"/><path class="cls-18" d="M266.9,142.75H271a3,3,0,0,1,3,3v16.4a0,0,0,0,1,0,0H266.9a0,0,0,0,1,0,0v-19.4A0,0,0,0,1,266.9,142.75Z"/><path class="cls-18" d="M273.11,123.85h4.31a0,0,0,0,1,0,0v11.83a0,0,0,0,1,0,0h-4.31a4.31,4.31,0,0,1-4.31-4.31v-3.21a4.31,4.31,0,0,1,4.31-4.31Z"/><rect class="cls-36" x="271.24" y="123.85" width="37.66" height="11.83" rx="4.39" ry="4.39"/><path class="cls-18" d="M290.33,107.74h-8.05a3.22,3.22,0,0,0-3.22,3.23v5.38a3.22,3.22,0,0,0,3.22,3.22h8.05Z"/><rect class="cls-36" x="281.38" y="107.74" width="16.85" height="11.83" rx="2.94" ry="2.94"/><rect class="cls-33" x="322.89" y="123.85" width="7.93" height="11.83" rx="3.97" ry="3.97" transform="translate(653.71 259.54) rotate(-180)"/><path class="cls-18" d="M280,140.25h4.31a0,0,0,0,1,0,0v11.83a0,0,0,0,1,0,0H280a4.31,4.31,0,0,1-4.31-4.31v-3.21A4.31,4.31,0,0,1,280,140.25Z"/><rect class="cls-36" x="277.93" y="140.25" width="30.96" height="11.83" rx="3.98" ry="3.98"/><rect class="cls-48" x="261.43" y="162.15" width="80.75" height="7.83" rx="3.91" ry="3.91"/><path class="cls-18" d="M261.12,138.8H239.85a18.09,18.09,0,0,0-18.08,18.09V199l41.64-2v-55.9A2.3,2.3,0,0,0,261.12,138.8Z"/><path class="cls-20" d="M246.91,138.8h20.56a3,3,0,0,1,3,3V197a0,0,0,0,1,0,0H228.83a0,0,0,0,1,0,0v-40.1A18.08,18.08,0,0,1,246.91,138.8Z"/><rect class="cls-28" x="236.39" y="156.34" width="28.06" height="8.39" rx="4.19" ry="4.19"/><rect class="cls-28" x="236.39" y="169.76" width="28.06" height="8.39" rx="4.19" ry="4.19"/><rect class="cls-28" x="236.39" y="183.17" width="28.06" height="8.39" rx="4.19" ry="4.19"/><rect class="cls-28" x="244.03" y="142.93" width="20.23" height="8.39" rx="4.19" ry="4.19"/><path class="cls-35" d="M288.64,180.5l-4,0a27.44,27.44,0,0,1-13.43-3.68l-3.48-2a8.92,8.92,0,0,1-4.14-10.07h0a8.92,8.92,0,0,1,12.92-5.44h0a27.38,27.38,0,0,0,12.5,3.42h0A8.92,8.92,0,0,1,297.33,174h0A8.91,8.91,0,0,1,288.64,180.5Z"/><rect class="cls-49" x="240.21" y="239.28" width="7.9" height="3.37"/><path class="cls-31" d="M225.9,199.36h34.66a0,0,0,0,1,0,0V232a10.89,10.89,0,0,1-10.89,10.89h-6.43a17.33,17.33,0,0,1-17.33-17.33V199.36a0,0,0,0,1,0,0Z"/><path class="cls-22" d="M233.78,199.55h32.87a0,0,0,0,1,0,0v27.1a16.44,16.44,0,0,1-16.44,16.44h0a16.44,16.44,0,0,1-16.44-16.44v-27.1A0,0,0,0,1,233.78,199.55Z"/><path class="cls-18" d="M250.68,213.59h2.45a5.54,5.54,0,0,1,5.54,5.54v12.22a0,0,0,0,1,0,0H247.59a0,0,0,0,1,0,0V216.68a3.09,3.09,0,0,1,3.09-3.09Z"/><path class="cls-33" d="M244.71,213.59h10.52a0,0,0,0,1,0,0v12.5a5.26,5.26,0,0,1-5.26,5.26h0a5.26,5.26,0,0,1-5.26-5.26v-12.5A0,0,0,0,1,244.71,213.59Z" transform="translate(499.94 444.94) rotate(180)"/><polygon class="cls-31" points="269.64 246.3 255.71 246.3 244.72 231.35 258.66 231.35 269.64 246.3"/><rect class="cls-48" x="220.69" y="196.44" width="55.11" height="9.59" rx="4.8" ry="4.8"/><rect class="cls-20" x="248.41" y="244.72" width="60.45" height="8.63" rx="4.32" ry="4.32"/><path class="cls-31" d="M302.05,182.82h0a1.7,1.7,0,0,0-1.7,1.62l-2.24,48.71h8.82l-3.19-48.74A1.7,1.7,0,0,0,302.05,182.82Z"/><rect class="cls-42" x="283.44" y="202.39" width="38.17" height="4.41" rx="2.21" ry="2.21"/><path class="cls-42" d="M280.37,230.48h49.87a0,0,0,0,1,0,0v0a14.67,14.67,0,0,1-14.67,14.67H295a14.67,14.67,0,0,1-14.67-14.67v0A0,0,0,0,1,280.37,230.48Z"/><path class="cls-50" d="M317.9,206.8H287.14s6.13,8.82.13,20H318C322.88,215.5,317.9,206.8,317.9,206.8Z"/><path class="cls-51" d="M319.33,210.55c-.41,6.77-20.62,13.18-31.93,16.24H318A24.45,24.45,0,0,0,319.33,210.55Z"/><path class="cls-42" d="M296.47,192.2h12.11a0,0,0,0,1,0,0V195a3.66,3.66,0,0,1-3.66,3.66h-4.79a3.66,3.66,0,0,1-3.66-3.66V192.2A0,0,0,0,1,296.47,192.2Z"/><path class="cls-52" d="M184.23,219.76l-5.48.08a38.48,38.48,0,0,0-26.26,10.87l-3.83,3.72a7.75,7.75,0,0,1-10.66.13h0a7.76,7.76,0,0,1,.29-11.65h0a38.47,38.47,0,0,1,40.05-5.72Z"/><path class="cls-53" d="M189.77,220.71l-10,2.7a29.75,29.75,0,0,0-17.59,13.13l-5.35,8.71a8.28,8.28,0,0,1-11,2.94h0a8.28,8.28,0,0,1-2.76-12.14l4.12-5.69a29.7,29.7,0,0,1,28.89-11.9Z"/><path class="cls-35" d="M203.39,223.65,194,226.18a27.85,27.85,0,0,0-16.49,12.32l-5,8.16a7.78,7.78,0,0,1-10.32,2.76h0A7.77,7.77,0,0,1,159.58,238l3.87-5.34a27.86,27.86,0,0,1,27.09-11.16Z"/><rect class="cls-32" x="172.56" y="216.99" width="49.63" height="32.44" rx="16.22" ry="16.22" transform="translate(418.59 443.94) rotate(173.85)"/><path class="cls-18" d="M177.68,245.91c.31.3.63.58,1,.86a16.19,16.19,0,0,0,11.92,3.49l17.08-1.84a16.22,16.22,0,0,0-3.48-32.26l-.22,0a16.23,16.23,0,0,1-9.42,27.91Z"/><rect class="cls-18" x="176.95" y="224.37" width="33.77" height="16.23" rx="7.93" ry="7.93" transform="translate(411.46 442.86) rotate(173.85)"/><rect class="cls-54" x="179.86" y="224.05" width="33.77" height="16.23" rx="7.93" ry="7.93" transform="translate(417.23 441.92) rotate(173.85)"/><path class="cls-21" d="M207.31,229.08l-2.81.25a19.23,19.23,0,0,0-9.18,3.32L193,234.24a6.24,6.24,0,0,0-2.33,7.27h0A6.24,6.24,0,0,0,200,244.6h0a19.35,19.35,0,0,1,8.56-3.08h0a6.25,6.25,0,0,0,5.21-8.33h0A6.27,6.27,0,0,0,207.31,229.08Z"/><path class="cls-55" d="M186.75,227.06a18.48,18.48,0,0,1,5.29,4.63c2.08,2.68,6.15,8.64,6.53,10.2"/><path class="cls-27" d="M186.68,234.43l1.83-.89a13.86,13.86,0,0,0,5.35-4.61l1.16-1.67a4.52,4.52,0,0,0-.3-5.51h0a4.51,4.51,0,0,0-7.09.32h0a13.9,13.9,0,0,1-5,4.28h0a4.52,4.52,0,0,0-1.37,7h0A4.52,4.52,0,0,0,186.68,234.43Z"/><path class="cls-27" d="M206.79,234.05l-2-.29a13.86,13.86,0,0,0-7,.83l-1.89.74a4.5,4.5,0,0,0-2.84,4.73h0a4.51,4.51,0,0,0,6.05,3.71h0a13.83,13.83,0,0,1,6.53-.77h0a4.51,4.51,0,0,0,5-5h0A4.51,4.51,0,0,0,206.79,234.05Z"/><path class="cls-18" d="M190.57,250.26l17.08-1.84a16.16,16.16,0,0,0,11-6.12,16.16,16.16,0,0,1-11,6.12l-17.08,1.84a16.08,16.08,0,0,1-9.22-1.74A16.08,16.08,0,0,0,190.57,250.26Z"/><path class="cls-32" d="M177,233.63c0,.16,0,.32,0,.48l0,.36a7.92,7.92,0,0,0,8.73,7l17.8-1.92h0l.57-.06a16.16,16.16,0,0,1-9.64,4.57l-16.85,1.81a16.18,16.18,0,0,1-5-10h0a16.24,16.24,0,0,1-.09-2.08Z"/><path class="cls-18" d="M178,246.18l.11.11Z"/><path class="cls-18" d="M177.68,245.91l16.85-1.81a16.16,16.16,0,0,0,9.64-4.57l2.34-.25a7.93,7.93,0,0,0,7-8.74l0-.36a7.89,7.89,0,0,0-1.23-3.47c1.74-1.92,3.54-3.8,5.22-5.77a16.23,16.23,0,0,1-9.85,27.48l-17.08,1.84a16.39,16.39,0,0,1-11.92-3.49l-.57-.48-.11-.11-.29-.27Z"/></g></g></svg>