<?xml version="1.0" encoding="UTF-8"?>
<svg xmlns="http://www.w3.org/2000/svg" xmlns:xlink="http://www.w3.org/1999/xlink" width="375pt" height="374.999991pt" viewBox="0 0 375 374.999991" version="1.2">
<defs>
<clipPath id="clip1">
  <path d="M 116 144 L 202 144 L 202 252 L 116 252 Z M 116 144 "/>
</clipPath>
<clipPath id="clip2">
  <path d="M 213.128906 57.101562 L 306.472656 121.234375 L 188.402344 293.082031 L 95.058594 228.949219 Z M 213.128906 57.101562 "/>
</clipPath>
<clipPath id="clip3">
  <path d="M 213.128906 57.101562 L 306.472656 121.234375 L 188.402344 293.082031 L 95.058594 228.949219 Z M 213.128906 57.101562 "/>
</clipPath>
<clipPath id="clip4">
  <path d="M 193 91 L 277 91 L 277 173 L 193 173 Z M 193 91 "/>
</clipPath>
<clipPath id="clip5">
  <path d="M 213.128906 57.101562 L 306.472656 121.234375 L 188.402344 293.082031 L 95.058594 228.949219 Z M 213.128906 57.101562 "/>
</clipPath>
<clipPath id="clip6">
  <path d="M 213.128906 57.101562 L 306.472656 121.234375 L 188.402344 293.082031 L 95.058594 228.949219 Z M 213.128906 57.101562 "/>
</clipPath>
</defs>
<g id="surface1">
<g clip-path="url(#clip1)" clip-rule="nonzero">
<g clip-path="url(#clip2)" clip-rule="nonzero">
<g clip-path="url(#clip3)" clip-rule="nonzero">
<path style=" stroke:none;fill-rule:nonzero;fill:rgb(85.099792%,85.099792%,85.099792%);fill-opacity:1;" d="M 173.726562 156.589844 C 152.585938 177.808594 173.8125 213.898438 157.507812 237.632812 C 148.917969 250.132812 133.261719 255.1875 122.871094 248.050781 C 117.480469 244.34375 114.699219 237.792969 117.140625 230.082031 C 119.78125 221.882812 128.042969 226.667969 125.160156 228.347656 C 124.054688 228.992188 123.339844 227.453125 123.65625 227.957031 C 123.675781 227.964844 123.640625 227.9375 123.59375 227.894531 C 119.457031 224.730469 114.472656 238.832031 124.367188 245.628906 C 132.816406 251.433594 146.820312 249.152344 155.171875 236.996094 C 159.054688 231.34375 161.714844 223.558594 162.027344 213.460938 C 162.625 194.4375 151.992188 146.210938 199.898438 144.304688 C 201.347656 144.246094 201.441406 146.433594 199.996094 146.492188 C 189.480469 146.917969 181.296875 149.136719 173.726562 156.589844 "/>
</g>
</g>
</g>
<g clip-path="url(#clip4)" clip-rule="nonzero">
<g clip-path="url(#clip5)" clip-rule="nonzero">
<g clip-path="url(#clip6)" clip-rule="nonzero">
<path style=" stroke:none;fill-rule:nonzero;fill:rgb(16.079712%,62.748718%,69.40918%);fill-opacity:1;" d="M 276.003906 150.238281 C 275.867188 134.234375 252.40625 132.078125 251.941406 130.886719 C 251.222656 129.046875 271.246094 122.75 267.367188 106.8125 C 263.722656 91.847656 249.324219 87.300781 234.351562 94.746094 C 217.742188 103.003906 205.433594 136.855469 205.441406 140.722656 C 202.773438 140.179688 202.367188 138.789062 193.871094 140.523438 C 191.292969 141.050781 196.644531 154.898438 198.25 153.898438 C 200.03125 152.78125 204.410156 149.515625 207.320312 146.273438 C 213.328125 156.359375 232.316406 172.625 249.511719 172.089844 C 266.578125 171.554688 276.132812 165.195312 276.003906 150.238281 "/>
</g>
</g>
</g>
</g>
</svg>
