<svg xmlns="http://www.w3.org/2000/svg" viewBox="0 0 451.74 167.61"><defs><style>.cls-1{fill:#1d1859;}.cls-10,.cls-17,.cls-2,.cls-27,.cls-8{fill:none;}.cls-2{stroke:#f8e6df;stroke-width:8.92px;}.cls-10,.cls-17,.cls-2,.cls-20,.cls-27{stroke-linecap:round;}.cls-10,.cls-17,.cls-2,.cls-8{stroke-miterlimit:10;}.cls-3{fill:#f3d8cd;}.cls-4{fill:#e9c0b0;}.cls-5{fill:#f8e6df;}.cls-6{fill:#fff;}.cls-7{fill:#332b45;}.cls-10,.cls-8{stroke:#f3d8cd;stroke-width:1.48px;}.cls-9{fill:#474154;}.cls-11{fill:#f87902;}.cls-12{fill:#22b5ec;}.cls-13,.cls-15{fill:#5510ae;}.cls-14{fill:#865afd;}.cls-15{opacity:0.41;}.cls-16{fill:#fd7e6a;}.cls-17,.cls-20{stroke:#2e2342;}.cls-17{stroke-width:42.5px;}.cls-18,.cls-20{fill:#2e2342;}.cls-19{fill:#fd6e00;}.cls-20,.cls-27{stroke-linejoin:round;}.cls-20{stroke-width:3.52px;}.cls-21{fill:#fc3647;}.cls-22{fill:#fd6564;}.cls-23{fill:#f79400;}.cls-24{fill:#f86360;}.cls-25{fill:#453069;}.cls-26{fill:#ff9a4e;}.cls-27{stroke:#ff9a4e;stroke-width:6.88px;}.cls-28{fill:#0049d2;}.cls-29{fill:#0374fd;}.cls-30{fill:#72d3b7;}.cls-31{fill:#50b58d;}.cls-32{fill:#231f20;opacity:0.15;}.cls-33{fill:#9f12e6;}.cls-34{fill:#8d00c5;}.cls-35{fill:#e269fc;}.cls-36{fill:#f86d5d;}.cls-37{fill:#ffaf33;}.cls-38{fill:#61c7ca;}.cls-39{fill:#fd8980;}.cls-40{fill:#068ffd;}.cls-41{fill:#fbcc2c;}.cls-42{fill:#6da64b;}.cls-43{fill:#e60359;}.cls-44{fill:#7501a1;}.cls-45{fill:#b902de;}.cls-46{fill:#fd7a03;}</style></defs><title>Asset 3</title><g id="Layer_2" data-name="Layer 2"><g id="Ebene_1" data-name="Ebene 1"><ellipse class="cls-1" cx="284.75" cy="159.18" rx="95.93" ry="8.43"/><rect class="cls-1" x="142.04" y="142.74" width="82.45" height="16.71" rx="8.35" ry="8.35"/><path class="cls-2" d="M219.06,123.11a8,8,0,0,0,8.3-13.76"/><path class="cls-3" d="M213.81,115.52l-41.32-9.35a15.47,15.47,0,0,0-18.88,15.09v9.35a15.47,15.47,0,0,0,15.46,15.47H210.4a15.47,15.47,0,0,0,15.47-15.47h0A15.48,15.48,0,0,0,213.81,115.52Z"/><circle class="cls-4" cx="176.26" cy="124.41" r="17.57"/><path class="cls-5" d="M198.53,146.21l18.12.13a12,12,0,0,0,12-11.92h0c0-11.89-15.42-16.54-21.95-6.6l-8.19,12.48Z"/><path class="cls-5" d="M202.22,146.22l-6.79.11a5.65,5.65,0,0,1-5.74-5.56h0a5.65,5.65,0,0,1,5.56-5.75l12.44-.2.09,5.65A5.67,5.67,0,0,1,202.22,146.22Z"/><path class="cls-5" d="M198.53,146.21l18.12.13a12,12,0,0,0,12-11.92h0c0-11.89-15.42-16.54-21.95-6.6l-8.19,12.48Z"/><path class="cls-5" d="M202.22,146.22l-6.79.11a5.65,5.65,0,0,1-5.74-5.56h0a5.65,5.65,0,0,1,5.56-5.75l12.44-.2.09,5.65A5.67,5.67,0,0,1,202.22,146.22Z"/><path class="cls-2" d="M227.36,109.35a8,8,0,0,0-11,2.73"/><rect class="cls-4" x="143.63" y="135.17" width="22.09" height="12.05" rx="6.02" ry="6.02"/><rect class="cls-4" x="143.63" y="135.17" width="22.09" height="12.05" rx="6.02" ry="6.02"/><ellipse class="cls-5" cx="162.18" cy="112" rx="18.42" ry="17.49" transform="translate(-5.84 8.97) rotate(-3.11)"/><path class="cls-5" d="M140.89,113.15,183,110.87l-3.57,12.19a11.67,11.67,0,0,1-4.4,6.26,15.46,15.46,0,0,1-5.68,2.48h0a42.55,42.55,0,0,1-12.64.69h0a15.65,15.65,0,0,1-5.9-1.85,11.59,11.59,0,0,1-5.06-5.75Z"/><path class="cls-3" d="M169.58,124.94c-.61-1.21-1.13-3-2.22-3.85-.93-.74-2.39-.49-3.48-.36-1.38.17-2.73.42-4.11.53-1.53.13-2.16,1.37-2.92,2.59a33.64,33.64,0,0,0-3.54,7.8,15.12,15.12,0,0,0,3.62.83h0a42.55,42.55,0,0,0,12.64-.69,15.2,15.2,0,0,0,3.12-1C171.59,128.84,170.57,126.87,169.58,124.94Z"/><path class="cls-3" d="M145.27,99.3,140,102a8,8,0,0,0-2.39,12.39l1.77,2a2.27,2.27,0,0,0,3.75-.52l8.75-18.34h0A16.75,16.75,0,0,0,145.27,99.3Z"/><path class="cls-3" d="M177.61,97.54l5.52,2.09a8,8,0,0,1,3.71,12.06l-1.54,2.2a2.27,2.27,0,0,1-3.78-.11L170.83,96.5h0A16.83,16.83,0,0,1,177.61,97.54Z"/><path class="cls-6" d="M156.54,117.77a5.82,5.82,0,1,0-11-3.87"/><path class="cls-6" d="M168,117.15a5.82,5.82,0,1,1,10.49-5"/><circle class="cls-7" cx="151.05" cy="115.83" r="4"/><circle class="cls-7" cx="173.22" cy="114.63" r="4"/><path class="cls-6" d="M168.5,131.36l-2.27-2.6a4.07,4.07,0,0,0-6.7.36l-2,2.83a4.51,4.51,0,0,1-5,1.33,7.55,7.55,0,0,1-4.17-6.48l0-.39c-.31-5.79,3.7-10.72,9-11h0a10.56,10.56,0,0,1,9.64-.53h0c5.26-.28,9.78,4.18,10.1,10l0,.39a7.52,7.52,0,0,1-3.45,6.89A4.48,4.48,0,0,1,168.5,131.36Z"/><line class="cls-8" x1="162.49" y1="121.82" x2="162.79" y2="127.29"/><path class="cls-9" d="M159.42,121.11l-.75-1a1.22,1.22,0,0,1,.93-1.93l5.37-.29a1.22,1.22,0,0,1,1.13,1.81l-.63,1.13A3.58,3.58,0,0,1,159.42,121.11Z"/><path class="cls-10" d="M169.63,105.26h0a24.71,24.71,0,0,0-15.59.85h0"/><rect class="cls-3" x="163.42" y="135.61" width="23.7" height="12.05" rx="6.02" ry="6.02" transform="translate(-2.36 2.97) rotate(-0.97)"/><rect class="cls-5" x="163.42" y="135.61" width="23.7" height="12.05" rx="6.02" ry="6.02" transform="translate(-2.36 2.97) rotate(-0.97)"/><path class="cls-11" d="M204.6,53.49a5,5,0,0,1,5.86-4.1l18.85,3.3a5,5,0,0,1,4.11,5.84h0a5.06,5.06,0,0,1-5.85,4.12l-18.85-3.3a5.06,5.06,0,0,1-4.12-5.86Z"/><path class="cls-12" d="M269.89,94.56a3.48,3.48,0,0,0,4-2.83c.86-4.93-26.53-41.71-39.86-44-7.29-1.28-13.2-2.31-15.19,9l-2.6,14.85a13.39,13.39,0,0,0,10.89,15.5h0Z"/><path class="cls-12" d="M224.76,91.21a2.35,2.35,0,0,0,1.92,2.72h0a2.33,2.33,0,0,0,2.7-1.91l1.45-8.28A2.34,2.34,0,0,0,228.94,81h0a2.35,2.35,0,0,0-2.73,1.91Z"/><path class="cls-12" d="M234.49,92.92a2.34,2.34,0,0,0,1.9,2.71h0a2.35,2.35,0,0,0,2.73-1.9l1.45-8.29a2.33,2.33,0,0,0-1.92-2.71h0a2.34,2.34,0,0,0-2.71,1.9Z"/><path class="cls-11" d="M219.61,91.41a1.49,1.49,0,0,0,1.2,1.71l20.94,3.66a1.47,1.47,0,0,0,1.71-1.2h0a1.47,1.47,0,0,0-1.2-1.71L221.32,90.2a1.48,1.48,0,0,0-1.71,1.21Z"/><path class="cls-6" d="M223.91,54.76a5.51,5.51,0,1,0,6.37-4.47A5.51,5.51,0,0,0,223.91,54.76Z"/><path class="cls-13" d="M222.28,104l16.41.08a52.27,52.27,0,1,1,52,57.31H222.28a28.7,28.7,0,1,1,0-57.39Z"/><path class="cls-14" d="M222.28,104l16.41.08a52.3,52.3,0,0,1,72.7-43,52.28,52.28,0,0,1-43.11,81.83l-1,0v0H199.84a29.1,29.1,0,0,1-4.51-.36A28.7,28.7,0,0,1,222.28,104Z"/><path class="cls-15" d="M219.71,119.27l42.5,14h0l.93.32A52.28,52.28,0,0,0,318,119.27Z"/><path class="cls-16" d="M278.72,86.53,260.05,66.22a2.46,2.46,0,0,0-3.75.15L242.66,83.71a2.47,2.47,0,0,0,.11,3.17l.17.19,1.55,1.68a26.7,26.7,0,0,0,33.13,5A4.67,4.67,0,0,0,279.9,89,4.62,4.62,0,0,0,278.72,86.53Z"/><path class="cls-17" d="M283,75S291,63.6,293.19,40.88"/><path class="cls-18" d="M202.43,117.79a5.75,5.75,0,0,1-6.24-5.2h0a5.68,5.68,0,0,1,5.16-6.26l18.77-1.75a5.77,5.77,0,0,1,6.27,5.16h0A5.73,5.73,0,0,1,221.2,116Z"/><path class="cls-18" d="M291.62,98.85c1.19,20.31-13.33,24.33-33.94,25.54s-39.53-.85-40.72-21.16,14.55-37.77,35.17-39S290.42,78.53,291.62,98.85Z"/><path class="cls-18" d="M224.68,127.83a5.75,5.75,0,0,1-7.38-3.39h0a5.69,5.69,0,0,1,3.35-7.39l17.67-6.57a5.77,5.77,0,0,1,7.39,3.35h0a5.72,5.72,0,0,1-3.38,7.39Z"/><rect class="cls-19" x="184.21" y="101.93" width="30.01" height="11.58" rx="5.79" ry="5.79" transform="translate(257.84 -111.04) rotate(76.6)"/><path class="cls-20" d="M309.25,60.24l-41,5.19c-1.52,0-30.47-2.88-37.66,11.23-10.14,19.9,28.44,48.75,51.76,40.22C287.3,115.09,301.9,101.71,309.25,60.24Z"/><rect class="cls-19" x="205.83" y="109.29" width="30.01" height="11.58" rx="5.79" ry="5.79" transform="translate(321.41 -112.73) rotate(86.29)"/><rect class="cls-21" x="275.68" y="80.75" width="8.06" height="29.55" rx="4.03" ry="4.03" transform="translate(-10.55 151.29) rotate(-29.73)"/><rect class="cls-21" x="277.06" y="80.75" width="8.06" height="29.55" rx="4.03" ry="4.03" transform="translate(59.01 -101.5) rotate(22.81)"/><path class="cls-11" d="M253.46,110.46A3.44,3.44,0,0,1,256.9,107h13a3.43,3.43,0,0,1,3.44,3.44h0a3.44,3.44,0,0,1-3.44,3.44h-13a3.45,3.45,0,0,1-3.44-3.44Z"/><path class="cls-11" d="M286.41,126.15a3.76,3.76,0,0,0-3.76-3.76h-8.53a3.76,3.76,0,1,0,0,7.52h8.53a3.76,3.76,0,0,0,3.76-3.76Z"/><path class="cls-22" d="M289.66,127.72h-10A18.65,18.65,0,0,1,261,109.07h0a17.82,17.82,0,0,1,17.82-17.82h27.69a6.16,6.16,0,0,1,6.17,6.16v7.31A23,23,0,0,1,289.66,127.72Z"/><path class="cls-22" d="M289.66,127.72h-10A18.65,18.65,0,0,1,261,109.07h0a17.82,17.82,0,0,1,17.82-17.82h27.69a6.16,6.16,0,0,1,6.17,6.16v7.31A23,23,0,0,1,289.66,127.72Z"/><path class="cls-23" d="M292.08,126.15a3.76,3.76,0,0,0-3.76-3.76h-8.53a3.76,3.76,0,1,0,0,7.52h8.53a3.76,3.76,0,0,0,3.76-3.76Z"/><path class="cls-6" d="M269.12,105.55a5,5,0,1,0,4.95-5A4.95,4.95,0,0,0,269.12,105.55Z"/><path class="cls-22" d="M267.64,101.93a6.53,6.53,0,1,0,6.53-6.53A6.52,6.52,0,0,0,267.64,101.93Z"/><path class="cls-24" d="M290.53,99.58c0-4.6,4.87-8.33,10.87-8.33h15.31c1.7,0,3.07,1.06,3.07,2.36v2.48c0,6.09-6.44,11-14.4,11h-5C294.94,107.12,290.53,103.74,290.53,99.58Z"/><path class="cls-21" d="M288.67,112.7a6.14,6.14,0,0,1,6.14-6.14h8.65a1.73,1.73,0,0,1,1.73,1.74v1.83a8.13,8.13,0,0,1-8.13,8.13h-2.83A5.56,5.56,0,0,1,288.67,112.7Z"/><path class="cls-25" d="M280.59,75a4.74,4.74,0,0,0,.81,2.63l24.5,36.4a6.37,6.37,0,0,0,10.26.43,27.07,27.07,0,0,0,1.2-31.91l-1.29-1.92a27.09,27.09,0,0,0-32.5-10,4.75,4.75,0,0,0-3,4.41Z"/><path class="cls-19" d="M269.58,51.93l-4.41-.55a9.6,9.6,0,0,1-8.31-10.78h0a9.59,9.59,0,0,1,10.73-8.27l6,.76a3.5,3.5,0,0,1,2.94,4.36l-3.11,11.9A3.48,3.48,0,0,1,269.58,51.93Z"/><path class="cls-6" d="M303.24,43.34a9.1,9.1,0,1,1-6.33-11.23A9.1,9.1,0,0,1,303.24,43.34Z"/><path class="cls-18" d="M304.53,57.87A12.06,12.06,0,1,1,296.14,43,12,12,0,0,1,304.53,57.87Z"/><path class="cls-26" d="M371.44,151.51a1.73,1.73,0,0,1,.6,2.37h0a1.7,1.7,0,0,1-2.35.6l-10.5-6.18a1.71,1.71,0,0,1-.62-2.35h0a1.72,1.72,0,0,1,2.37-.62Z"/><path class="cls-26" d="M367.75,157.77a1.73,1.73,0,0,1,.61,2.36h0a1.72,1.72,0,0,1-2.36.62l-10.5-6.18a1.73,1.73,0,0,1-.61-2.38h0a1.72,1.72,0,0,1,2.36-.6Z"/><path class="cls-26" d="M375.88,147.36a1.87,1.87,0,0,1,.67,2.57L367.65,165a1.88,1.88,0,0,1-2.57.67h0a1.88,1.88,0,0,1-.66-2.57L373.31,148a1.88,1.88,0,0,1,2.57-.67Z"/><line class="cls-27" x1="360.32" y1="123.04" x2="368.9" y2="123.01"/><path class="cls-28" d="M339.06,106.37h26a0,0,0,0,1,0,0V129.1a13,13,0,0,1-13,13h0a13,13,0,0,1-13-13V106.37a0,0,0,0,1,0,0Z" transform="translate(704.55 247.2) rotate(179.8)"/><path class="cls-28" d="M337.11,127.58h28a0,0,0,0,1,0,0v10.24a23,23,0,0,1-23,23h-21.6a0,0,0,0,1,0,0V144.17a16.59,16.59,0,0,1,16.59-16.59Z" transform="translate(686.15 287.17) rotate(179.8)"/><path class="cls-29" d="M342.85,127.25h0a11.24,11.24,0,0,1,11.24,11.24v22.66a0,0,0,0,1,0,0H349.2a17.65,17.65,0,0,1-17.65-17.65v-5a11.29,11.29,0,0,1,11.29-11.29Z" transform="translate(485.79 -199.14) rotate(89.8)"/><circle class="cls-6" cx="355.19" cy="120.71" r="5.12"/><circle class="cls-28" cx="354.17" cy="126.97" r="5.12"/><path class="cls-11" d="M142.62,60a2,2,0,0,0,1.11,2.55h0a2,2,0,0,0,2.56-1.1l2.6-6.62a2,2,0,0,0-1.1-2.57h0a2,2,0,0,0-2.57,1.13Z"/><path class="cls-11" d="M150.35,63.09a2,2,0,0,0,1.11,2.55h0a2,2,0,0,0,2.57-1.1l2.61-6.61a2,2,0,0,0-1.12-2.58h0A2,2,0,0,0,153,56.48Z"/><path class="cls-11" d="M138.31,60.15A2.1,2.1,0,0,1,141.05,59l14,5.5a2.11,2.11,0,0,1,1.19,2.74h0a2.1,2.1,0,0,1-2.74,1.19l-14-5.49a2.12,2.12,0,0,1-1.19-2.75Z"/><path class="cls-30" d="M184.24,42.64a3.27,3.27,0,0,0,2.28-4h0a3.26,3.26,0,0,0-4-2.27L163.4,41.63a3.26,3.26,0,0,0-2.27,4h0a3.25,3.25,0,0,0,4,2.27Z"/><path class="cls-30" d="M188.05,47.92a3.27,3.27,0,0,0,2.28-4h0a3.26,3.26,0,0,0-4-2.27l-19.13,5.28a3.25,3.25,0,0,0-2.27,4h0a3.25,3.25,0,0,0,4,2.28Z"/><path class="cls-31" d="M149.08,11.62h0a26.74,26.74,0,0,1,26.74,26.74V54.18a0,0,0,0,1,0,0H149.08a0,0,0,0,1,0,0V11.62a0,0,0,0,1,0,0Z" transform="translate(-2.91 44.25) rotate(-15.38)"/><path class="cls-11" d="M127.87,39.89a3.63,3.63,0,0,1,2.54-4.45l13.21-3.63a3.63,3.63,0,0,1,4.46,2.53h0a3.63,3.63,0,0,1-2.54,4.46l-13.21,3.63a3.63,3.63,0,0,1-4.46-2.54Z"/><path class="cls-31" d="M138.69,46.94c2.05,7.46,9.4,11.94,16.4,10l10.25-2.82,1.39-.38c7-1.93,11-9.54,9-17h0c-2-7.46-9.39-12-16.4-10L147.67,30c-7,1.93-11,9.53-9,17Z"/><rect class="cls-31" x="134.03" y="15.67" width="24.78" height="24.78" rx="10.87" ry="10.87" transform="translate(-2.2 39.83) rotate(-15.38)"/><rect class="cls-31" x="136.49" y="29.35" width="12.74" height="16.91" transform="translate(-4.91 39.23) rotate(-15.38)"/><path class="cls-6" d="M141.39,29.44A5.22,5.22,0,1,0,145,23,5.21,5.21,0,0,0,141.39,29.44Z"/><line class="cls-31" x1="182.32" y1="49.35" x2="166.27" y2="53.76"/><polyline class="cls-31" points="179.51 50.25 175.97 37.85 166.73 53.76"/><path class="cls-32" d="M157.57,44.44a6.48,6.48,0,0,1-1.81-9l5.05-7.59a1.82,1.82,0,0,1,2.53-.51L165,28.44a8.56,8.56,0,0,1,2.4,11.88L165.7,42.8A5.86,5.86,0,0,1,157.57,44.44Z"/><ellipse class="cls-1" cx="420.02" cy="152.48" rx="19.05" ry="3.22"/><circle class="cls-33" cx="420.3" cy="131.24" r="21.24"/><path class="cls-34" d="M413,147.12a23.45,23.45,0,0,0,22.2-31,21.23,21.23,0,1,1-30.58,29.45A23.27,23.27,0,0,0,413,147.12Z"/><path class="cls-35" d="M406.46,128.9a1.13,1.13,0,0,1-1.93-.74,12.63,12.63,0,0,1,13.32-13.32,1.13,1.13,0,0,1,.74,1.93Z"/><path class="cls-11" d="M422.24,110.79a2.29,2.29,0,0,0,2.29,2.29h0a2.29,2.29,0,0,0,2.31-2.29l2.33-8.23a2.3,2.3,0,0,0-2.31-2.3h0a2.29,2.29,0,0,0-2.29,2.3Z"/><path class="cls-36" d="M445.84,74.82h0a5.3,5.3,0,0,1,.39,7.49L436,93.66a5.3,5.3,0,0,1-7.49.39h0Z"/><path class="cls-36" d="M451.71,82.11h0A5.3,5.3,0,0,1,447,88l-15.18,1.73A5.3,5.3,0,0,1,426,85h0Z"/><rect class="cls-37" x="402.6" y="76.82" width="41.31" height="27.08" rx="13.54" ry="13.54"/><path class="cls-11" d="M412.57,110.79a2.29,2.29,0,0,0,2.3,2.29h0a2.28,2.28,0,0,0,2.29-2.29l2.33-8.23a2.28,2.28,0,0,0-2.29-2.3h0a2.29,2.29,0,0,0-2.3,2.3Z"/><path class="cls-11" d="M390.83,79.46a5.65,5.65,0,0,1,5.67-5.65h21.4a5.64,5.64,0,0,1,5.64,5.65h0a5.64,5.64,0,0,1-5.64,5.66H396.5a5.66,5.66,0,0,1-5.67-5.66Z"/><rect class="cls-37" x="392.67" y="70.27" width="41.31" height="27.08" rx="13.54" ry="13.54" transform="translate(499.25 496.71) rotate(-113.22)"/><path class="cls-6" d="M404.25,74.74A4.73,4.73,0,1,0,409,70,4.72,4.72,0,0,0,404.25,74.74Z"/><path class="cls-36" d="M433.85,80.81h0a10,10,0,0,1-6.94,12.33l-5.29,1.47A6.26,6.26,0,0,1,414,90.28h0a6.29,6.29,0,0,1,4.35-7.75L430.7,79A2.55,2.55,0,0,1,433.85,80.81Z"/><path class="cls-11" d="M408.65,111.23a2.07,2.07,0,0,0,2.07,2.06h17.74a2.07,2.07,0,0,0,2.07-2.06h0a2.07,2.07,0,0,0-2.07-2.07H410.72a2.07,2.07,0,0,0-2.07,2.07Z"/><ellipse class="cls-1" cx="73.34" cy="154.17" rx="27.5" ry="3.26"/><path class="cls-11" d="M38.37,116.84l1.28,6.48a1.84,1.84,0,0,1-1.45,2.15h0A1.84,1.84,0,0,1,36,124l-1.27-6.48"/><path class="cls-11" d="M30.79,118.33l1.27,6.48A1.84,1.84,0,0,1,30.62,127h0a1.83,1.83,0,0,1-2.17-1.44L27.18,119"/><path class="cls-11" d="M43.57,124.15a2,2,0,0,0-2.31-1.55l-13.69,2.68A2,2,0,0,0,26,127.59h0a2,2,0,0,0,2.31,1.55L42,126.46a2,2,0,0,0,1.56-2.31Z"/><path class="cls-38" d="M10.15,115.24a2.7,2.7,0,0,1-2.83-2.59h0a2.73,2.73,0,0,1,2.59-2.84l16.55-.72a2.74,2.74,0,0,1,2.84,2.6h0a2.76,2.76,0,0,1-2.6,2.84Z"/><path class="cls-38" d="M6.73,110.29a2.7,2.7,0,0,1-2.82-2.59h0a2.72,2.72,0,0,1,2.6-2.83l16.55-.73a2.75,2.75,0,0,1,2.84,2.6h0a2.75,2.75,0,0,1-2.6,2.84Z"/><path class="cls-38" d="M2.85,105.37A2.73,2.73,0,0,1,0,102.77H0a2.74,2.74,0,0,1,2.6-2.84l16.56-.71a2.73,2.73,0,0,1,2.83,2.6h0a2.71,2.71,0,0,1-2.6,2.83Z"/><path class="cls-11" d="M58.5,93a3.82,3.82,0,0,0-4-3.66L40,90a3.83,3.83,0,0,0-3.67,4h0a3.84,3.84,0,0,0,4,3.67L54.83,97a3.85,3.85,0,0,0,3.67-4Z"/><rect class="cls-39" x="22.93" y="77.31" width="26.24" height="26.24" rx="11.51" ry="11.51" transform="translate(76.03 179.21) rotate(177.49)"/><path class="cls-39" d="M25,121.3l11.16-.48c7.91-.35,14.12-5.29,13.73-14.16h0c-.33-7.47-7-13.25-14.91-12.9L29,94c-7.91.35-19.14,8-18.6,20.36v-.12C10.68,121.73,17.1,121.65,25,121.3Z"/><rect class="cls-39" x="36.06" y="90.15" width="13.5" height="17.91" transform="matrix(-1, 0.04, -0.04, -1, 89.92, 196.24)"/><path class="cls-6" d="M44.12,89.74a5.53,5.53,0,1,1-5.76-5.28A5.53,5.53,0,0,1,44.12,89.74Z"/><path class="cls-39" d="M45.56,91.15a6.1,6.1,0,0,1-12,2"/><circle class="cls-29" cx="73.34" cy="141.06" r="13.11"/><path class="cls-28" d="M68.84,150.86a14.48,14.48,0,0,0,13.71-19.14,13.12,13.12,0,1,1-18.89,18.19A14.61,14.61,0,0,0,68.84,150.86Z"/><path class="cls-40" d="M64.8,139.61a.7.7,0,0,1-1.19-.45,7.79,7.79,0,0,1,8.22-8.23.71.71,0,0,1,.46,1.2Z"/><path class="cls-41" d="M83.66,77.91a7.71,7.71,0,0,0,7.11,8.25l13.61,1a7.69,7.69,0,0,0,8.25-7.11h0a7.7,7.7,0,0,0-7.11-8.25l-13.61-1a7.7,7.7,0,0,0-8.25,7.11Z"/><path class="cls-41" d="M117.28,88.29a4.66,4.66,0,0,0,4.31,5l8.25.61a4.67,4.67,0,0,0,5-4.31h0a4.67,4.67,0,0,0-4.31-5L122.28,84a4.67,4.67,0,0,0-5,4.32Z"/><path class="cls-41" d="M113.72,95.3a4.67,4.67,0,0,0,4.31,5l8.25.61a4.67,4.67,0,0,0,5-4.32h0a4.66,4.66,0,0,0-4.31-5L118.72,91a4.67,4.67,0,0,0-5,4.31Z"/><path class="cls-41" d="M109.14,102.23a4.67,4.67,0,0,0,4.31,5l8.25.61a4.66,4.66,0,0,0,5-4.31h0a4.67,4.67,0,0,0-4.31-5l-8.25-.61a4.66,4.66,0,0,0-5,4.31Z"/><path class="cls-11" d="M71.89,90.78A4.78,4.78,0,0,1,77,86.36L95.11,87.7a4.78,4.78,0,0,1,4.42,5.12h0a4.8,4.8,0,0,1-5.13,4.43L76.33,95.91a4.79,4.79,0,0,1-4.44-5.13Z"/><path class="cls-11" d="M99.14,114.07a1.55,1.55,0,0,0,1.79,1.27h0a1.54,1.54,0,0,0,1.26-1.79l-.93-5.47a1.55,1.55,0,0,0-1.78-1.27h0a1.54,1.54,0,0,0-1.27,1.79Z"/><path class="cls-11" d="M105.57,113a1.53,1.53,0,0,0,1.78,1.26h0a1.55,1.55,0,0,0,1.28-1.78l-.94-5.48a1.54,1.54,0,0,0-1.79-1.26h0a1.55,1.55,0,0,0-1.27,1.79Z"/><path class="cls-11" d="M94.24,116.48a1.67,1.67,0,0,0,1.94,1.38l15.52-2.65a1.67,1.67,0,0,0,1.38-1.94h0a1.68,1.68,0,0,0-1.94-1.38l-15.53,2.65a1.67,1.67,0,0,0-1.37,1.94Z"/><path class="cls-42" d="M81.5,92.93A17,17,0,0,1,99.75,77.2L123.68,79a4.83,4.83,0,0,1,4.45,5.16l-.38,5.07A22.57,22.57,0,0,1,103.58,110l-7.82-.57A15.45,15.45,0,0,1,81.5,92.94Z"/><path class="cls-6" d="M88.14,87.29a4.68,4.68,0,1,0,5-4.33A4.68,4.68,0,0,0,88.14,87.29Z"/><path class="cls-42" d="M88.88,93.46a4.68,4.68,0,1,0,5-4.33A4.68,4.68,0,0,0,88.88,93.46Z"/><rect class="cls-43" x="23.17" y="121.84" width="93.01" height="7.24" rx="3.62" ry="3.62" transform="matrix(0.99, -0.17, 0.17, 0.99, -19.81, 13.26)"/><path class="cls-44" d="M366.23.28A2.23,2.23,0,0,0,363,1.8a9.12,9.12,0,0,0,15.85,7.58,1.61,1.61,0,0,0-.43-2.48Z"/><rect class="cls-11" x="365.69" y="28.46" width="4.26" height="24.77" transform="translate(737.59 56.12) rotate(176.03)"/><rect class="cls-11" x="358.3" y="28.97" width="4.26" height="24.77" transform="translate(722.87 57.66) rotate(176.03)"/><rect class="cls-11" x="354.44" y="51.57" width="21.74" height="3.73" rx="1.87" ry="1.87" transform="translate(733.44 81.44) rotate(176.03)"/><path class="cls-45" d="M346.8,15h10a20,20,0,0,1,20,20V40a1.94,1.94,0,0,1-1.94,1.94H346.8a12.49,12.49,0,0,1-12.49-12.49V27.48A12.49,12.49,0,0,1,346.8,15Z" transform="translate(654.2 223.6) rotate(-151.41)"/><path class="cls-44" d="M349,4.88h0a12.61,12.61,0,0,0-5.36,17.05l3.21,6.14a7.91,7.91,0,0,0,10.61,3.34h0a8,8,0,0,0,3.39-10.71l-7.5-14.44A3.24,3.24,0,0,0,349,4.88Z"/><path class="cls-46" d="M375.7,22.13l9,4.88a3.76,3.76,0,0,0,5.08-1.5h0a3.76,3.76,0,0,0-1.5-5.08l-9-4.88a3.76,3.76,0,0,0-5.08,1.5h0A3.76,3.76,0,0,0,375.7,22.13Z"/><path class="cls-44" d="M360.11,15.59l14.7,22.23,8.28-15.19a11.56,11.56,0,0,0-20.31-11.06l-.65,1.19a14.5,14.5,0,0,1-2,2.83"/><path class="cls-6" d="M371.3,16.23v-.05a4.2,4.2,0,1,1,5.5,4.13Z"/></g></g></svg>