<?xml version="1.0" encoding="utf-8"?>
<!-- Generator: Adobe Illustrator 22.0.1, SVG Export Plug-In . SVG Version: 6.00 Build 0)  -->
<svg version="1.1" id="Ebene_1" xmlns="http://www.w3.org/2000/svg" xmlns:xlink="http://www.w3.org/1999/xlink" x="0px" y="0px"
	 viewBox="0 0 316.6 194.1" enable-background="new 0 0 316.6 194.1" xml:space="preserve">
<g>
	<g>
		
			<ellipse transform="matrix(0.9474 -0.3202 0.3202 0.9474 -21.9167 58.048)" opacity="0.25" fill="#7300FF" cx="165.6" cy="95.7" rx="156.2" ry="70.1"/>
		
			<ellipse transform="matrix(0.9474 -0.3202 0.3202 0.9474 -21.9167 58.048)" opacity="0.5" fill="#D13D91" cx="165.6" cy="95.7" rx="115" ry="51.6"/>
		
			<ellipse transform="matrix(0.9474 -0.3202 0.3202 0.9474 -21.9167 58.048)" opacity="0.75" fill="#FF5E5E" cx="165.6" cy="95.7" rx="85.2" ry="38.2"/>
		
			<ellipse transform="matrix(0.9474 -0.3202 0.3202 0.9474 -21.9167 58.048)" fill="#FF8D4F" cx="165.6" cy="95.7" rx="73" ry="32.8"/>
		
			<ellipse transform="matrix(0.9474 -0.3202 0.3202 0.9474 -21.9167 58.048)" fill="#FFD65C" cx="165.6" cy="95.7" rx="44.4" ry="19.9"/>
	</g>
	<g>
		
			<linearGradient id="SVGID_1_" gradientUnits="userSpaceOnUse" x1="-893.5993" y1="212.129" x2="-591.7378" y2="212.129" gradientTransform="matrix(1 2.632475e-03 -2.632475e-03 1 908.8065 -114.496)">
			<stop  offset="0" style="stop-color:#4325BA"/>
			<stop  offset="1" style="stop-color:#4325BA"/>
		</linearGradient>
		
			<ellipse transform="matrix(0.9474 -0.3202 0.3202 0.9474 -21.9167 58.048)" fill="none" stroke="url(#SVGID_1_)" stroke-width="2.6814" stroke-linecap="round" stroke-linejoin="round" stroke-miterlimit="10" stroke-dasharray="148.3725,15.1948,24.1329,116.4188,0,0" cx="165.6" cy="95.7" rx="156.2" ry="70.1"/>
		
			<linearGradient id="SVGID_2_" gradientUnits="userSpaceOnUse" x1="-871.4203" y1="212.129" x2="-613.9168" y2="212.129" gradientTransform="matrix(1 2.632475e-03 -2.632475e-03 1 908.8065 -114.496)">
			<stop  offset="0" style="stop-color:#2358DE"/>
			<stop  offset="1" style="stop-color:#2358DE"/>
		</linearGradient>
		
			<ellipse transform="matrix(0.9474 -0.3202 0.3202 0.9474 -21.9167 58.048)" fill="none" stroke="url(#SVGID_2_)" stroke-width="2.6814" stroke-linecap="round" stroke-linejoin="round" stroke-miterlimit="10" stroke-dasharray="148.3725,15.1948,24.1329,116.4188,0,0" cx="165.6" cy="95.7" rx="133" ry="59.7"/>
		
			<linearGradient id="SVGID_3_" gradientUnits="userSpaceOnUse" x1="-854.1075" y1="212.129" x2="-631.2296" y2="212.129" gradientTransform="matrix(1 2.632475e-03 -2.632475e-03 1 908.8065 -114.496)">
			<stop  offset="0" style="stop-color:#D13D91"/>
			<stop  offset="1" style="stop-color:#D13D91"/>
		</linearGradient>
		
			<ellipse transform="matrix(0.9474 -0.3202 0.3202 0.9474 -21.9167 58.048)" fill="none" stroke="url(#SVGID_3_)" stroke-width="2.6814" stroke-linecap="round" stroke-linejoin="round" stroke-miterlimit="10" stroke-dasharray="148.3725,15.1948,24.1329,116.4188,0,0" cx="165.6" cy="95.7" rx="115" ry="51.6"/>
		
			<linearGradient id="SVGID_4_" gradientUnits="userSpaceOnUse" x1="-825.5557" y1="212.129" x2="-659.7814" y2="212.129" gradientTransform="matrix(1 2.632475e-03 -2.632475e-03 1 908.8065 -114.496)">
			<stop  offset="0" style="stop-color:#FF5E5E"/>
			<stop  offset="1" style="stop-color:#FF5E5E"/>
		</linearGradient>
		
			<ellipse transform="matrix(0.9474 -0.3202 0.3202 0.9474 -21.9167 58.048)" fill="none" stroke="url(#SVGID_4_)" stroke-width="2.6814" stroke-linecap="round" stroke-linejoin="round" stroke-miterlimit="10" stroke-dasharray="148.3725,15.1948,24.1329,116.4188,0,0" cx="165.6" cy="95.7" rx="85.2" ry="38.2"/>
		
			<linearGradient id="SVGID_5_" gradientUnits="userSpaceOnUse" x1="-813.8935" y1="212.129" x2="-671.4436" y2="212.129" gradientTransform="matrix(1 2.632475e-03 -2.632475e-03 1 908.8065 -114.496)">
			<stop  offset="0" style="stop-color:#FF5E5E"/>
			<stop  offset="1" style="stop-color:#FF5E5E"/>
		</linearGradient>
		
			<ellipse transform="matrix(0.9474 -0.3202 0.3202 0.9474 -21.9167 58.048)" fill="none" stroke="url(#SVGID_5_)" stroke-width="2.6814" stroke-linecap="round" stroke-linejoin="round" stroke-miterlimit="10" stroke-dasharray="95.1908,15.1948,24.1329,116.4188,0,0" cx="165.6" cy="95.7" rx="73" ry="32.8"/>
		
			<linearGradient id="SVGID_6_" gradientUnits="userSpaceOnUse" x1="-798.1072" y1="212.129" x2="-687.23" y2="212.129" gradientTransform="matrix(1 2.632475e-03 -2.632475e-03 1 908.8065 -114.496)">
			<stop  offset="0" style="stop-color:#FFD65C"/>
			<stop  offset="1" style="stop-color:#FFD65C"/>
		</linearGradient>
		
			<ellipse transform="matrix(0.9474 -0.3202 0.3202 0.9474 -21.9167 58.048)" fill="none" stroke="url(#SVGID_6_)" stroke-width="2.6814" stroke-linecap="round" stroke-linejoin="round" stroke-miterlimit="10" stroke-dasharray="95.1908,15.1948,24.1329,116.4188,0,0" cx="165.6" cy="95.7" rx="56.5" ry="25.4"/>
	</g>
	<g>
		<circle fill="#7300FF" cx="302.1" cy="14.1" r="3.2"/>
		
			<linearGradient id="SVGID_7_" gradientUnits="userSpaceOnUse" x1="-645.0107" y1="247.7015" x2="-638.618" y2="247.7015" gradientTransform="matrix(1 2.632475e-03 -2.632475e-03 1 908.8065 -114.496)">
			<stop  offset="0" style="stop-color:#2358DE"/>
			<stop  offset="1" style="stop-color:#2358DE"/>
		</linearGradient>
		<circle fill="url(#SVGID_7_)" cx="266.3" cy="131.5" r="3.2"/>
		
			<linearGradient id="SVGID_8_" gradientUnits="userSpaceOnUse" x1="-617.3855" y1="119.3092" x2="-610.9928" y2="119.3092" gradientTransform="matrix(1 2.632475e-03 -2.632475e-03 1 908.8065 -114.496)">
			<stop  offset="0" style="stop-color:#2358DE"/>
			<stop  offset="1" style="stop-color:#2358DE"/>
		</linearGradient>
		<circle fill="url(#SVGID_8_)" cx="294.3" cy="3.2" r="3.2"/>
		
			<linearGradient id="SVGID_9_" gradientUnits="userSpaceOnUse" x1="-4040.8723" y1="7317.3066" x2="-4032.8235" y2="7317.3066" gradientTransform="matrix(0.6818 0.7315 -0.7315 0.6818 8204.2949 -1845.6877)">
			<stop  offset="0" style="stop-color:#2358DE"/>
			<stop  offset="1" style="stop-color:#2358DE"/>
		</linearGradient>
		<circle fill="url(#SVGID_9_)" cx="99.1" cy="190" r="4"/>
		<circle fill="#7300FF" cx="230.6" cy="159.3" r="3.2"/>
		<circle fill="#7300FF" cx="47.2" cy="60.2" r="4"/>
		<circle fill="#7300FF" cx="4" cy="126.9" r="4"/>
		<circle fill="#7300FF" cx="107.4" cy="167" r="4"/>
		<circle fill="#7300FF" cx="184.5" cy="3.7" r="3.2"/>
		<circle fill="#7300FF" cx="71.7" cy="41.6" r="3.2"/>
		<circle fill="#D13D91" cx="247.4" cy="92.2" r="3.2"/>
		<circle fill="#D13D91" cx="62.4" cy="130.9" r="2.2"/>
		<circle fill="#D13D91" cx="230.1" cy="95.5" r="2.2"/>
		<circle fill="#D13D91" cx="77.4" cy="117.6" r="2.2"/>
		<circle fill="#D13D91" cx="125.8" cy="79.5" r="2.2"/>
		<circle fill="#D13D91" cx="210.2" cy="104" r="2.2"/>
		<circle fill="#D13D91" cx="264.2" cy="75.6" r="2.2"/>
		<circle fill="#D13D91" cx="232.4" cy="55.4" r="3.2"/>
		<circle fill="#D13D91" cx="137.5" cy="127.6" r="3.2"/>
		<circle fill="#D13D91" cx="90.6" cy="86.9" r="3.2"/>
		<circle fill="#D13D91" cx="256.9" cy="59.7" r="3.2"/>
		<circle fill="#9238FF" cx="69.2" cy="155.5" r="3.2"/>
		<circle fill="#9238FF" cx="56.6" cy="114.9" r="2.2"/>
		<circle fill="#9238FF" cx="185.2" cy="54.1" r="2.2"/>
		<circle fill="#9238FF" cx="281.3" cy="63.2" r="2.2"/>
		<circle fill="#9238FF" cx="303.6" cy="57.7" r="3.2"/>
		<circle fill="#9238FF" cx="263.7" cy="35.6" r="3.2"/>
		<circle fill="#9238FF" cx="289" cy="39.1" r="3.2"/>
		<circle fill="#9238FF" cx="52.3" cy="134.8" r="3.2"/>
	</g>
	<g>
		<path fill="#FFFFFF" d="M186.9,88.4L186.9,88.4c0.1,0.4,0.2,0.8,0.2,1.2c0.3,5.3-7.7,12.2-18.9,15.9c-11,3.7-21.3,3-24.3-1.2
			c-0.3-0.4-0.5-0.8-0.6-1.2l0-0.1c-1.7-5.4,6.6-13.1,18.6-17.1C174,81.8,185.1,83,186.9,88.4z"/>
		<g>
			<path opacity="0.5" fill="#FFFFFF" d="M186.9,88.4c0.1,0.3,0.1,0.5,0.2,0.8c0,0.2,0.1,0.3,0.1,0.5c0.3,5.3-7.7,12.2-18.9,15.9
				c-11,3.7-21.3,3-24.3-1.2c-0.2-0.4-0.4-0.8-0.6-1.2l0-0.1c-0.8-1.7-1.4-3.5-1.7-5.4c-2.2-12.3,6.1-24.2,18.6-26.6
				C172.6,68.7,184.3,76.5,186.9,88.4z"/>
		</g>
	</g>
</g>
</svg>
